<?xml version="1.0"?>
<svg width="839.2" height="727.08" xmlns="http://www.w3.org/2000/svg" xmlns:svg="http://www.w3.org/2000/svg" data-name="Layer 1">
 <title>happy birthday</title>
 <g class="layer">
  <title>Layer 1</title>
  <path d="m249.05,238.54c-1.14,6.35 0.58,13.85 3.92,17.2c1.4,1.4 3.02,2.1 4.37,3.62c2.95,3.3 4.12,9.61 5.07,15.41c1.1,6.68 2.2,13.74 1.2,20.45c-0.64,4.28 -2.11,8.07 -2.94,12.26a14.93,25.58 0 0 0 -0.71,10.92c0.12,1.96 0.41,3.97 1.19,5.43c1.13,2.08 2.95,2.4 4.58,2.9a22.24,38.11 0 0 1 15.99,21.22" fill="none" id="svg_1" stroke="#535461" stroke-miterlimit="10" stroke-width="2"/>
  <polygon fill="#ffaad4" id="svg_2" points="259.760009765625,238.1400146484375 242.27999877929688,238.1400146484375 245.34295654296875,228.260009765625 255.82568359375,228.260009765625 259.760009765625,238.1400146484375 "/>
  <path d="m297.73,166.06c0,24.43 -20.09,60.21 -44.86,60.21s-44.86,-35.79 -44.86,-60.21a44.86,44.22 0 0 1 89.73,0l0,0z" fill="#ffaad4" id="svg_3" transform="matrix(1 0 0 1 0 0)"/>
  <polygon fill="#535461" id="svg_4" points="254.8397979736328,227.92001342773438 245.8802032470703,227.92001342773438 240.64999389648438,224.6300048828125 260.07000732421875,224.6300048828125 254.8397979736328,227.92001342773438 "/>
  <path d="m282.15,135.32s-46.33,25.15 -52.95,75.45" fill="#fff" id="svg_5" opacity="0.1"/>
  <path d="m336.98,368.64c-1.14,6.35 0.58,13.85 3.92,17.2c1.4,1.4 3.02,2.1 4.37,3.62c2.95,3.3 4.12,9.61 5.07,15.41c1.1,6.68 2.2,13.74 1.2,20.45c-0.64,4.28 -2.11,8.07 -2.94,12.26a14.93,25.58 0 0 0 -0.71,10.92c0.12,1.96 0.41,3.97 1.19,5.43c1.13,2.08 2.95,2.4 4.58,2.9a22.24,38.11 0 0 1 15.99,21.22" fill="none" id="svg_20" stroke="#535461" stroke-miterlimit="10" stroke-width="2"/>
  <polygon fill="#ffaad4" id="svg_19" points="347.6950378417969,368.24102783203125 330.21502685546875,368.24102783203125 333.2779541015625,358.36102294921875 343.76068115234375,358.36102294921875 347.6950378417969,368.24102783203125 "/>
  <path d="m383.66,296.16c0,24.43 -20.09,60.21 -44.86,60.21s-44.86,-35.79 -44.86,-60.21a44.86,44.22 0 0 1 89.73,0l0,0z" fill="#ffaad4" id="svg_18"/>
  <polygon fill="#535461" id="svg_17" points="342.7748107910156,358.0210266113281 333.8152160644531,358.0210266113281 328.58502197265625,354.73101806640625 348.0050354003906,354.73101806640625 342.7748107910156,358.0210266113281 "/>
  <path d="m370.09,265.42s-46.33,25.15 -52.95,75.45" fill="#fff" id="svg_16" opacity="0.1"/>
  <path d="m336.98,368.64c-1.14,6.35 0.58,13.85 3.92,17.2c1.4,1.4 3.02,2.1 4.37,3.62c2.95,3.3 4.12,9.61 5.07,15.41c1.1,6.68 2.2,13.74 1.2,20.45c-0.64,4.28 -2.11,8.07 -2.94,12.26a14.93,25.58 0 0 0 -0.71,10.92c0.12,1.96 0.41,3.97 1.19,5.43c1.13,2.08 2.95,2.4 4.58,2.9a22.24,38.11 0 0 1 15.99,21.22" fill="none" id="svg_25" stroke="#535461" stroke-miterlimit="10" stroke-width="2"/>
  <polygon fill="#d4aaff" id="svg_24" points="347.6950378417969,368.24102783203125 330.21502685546875,368.24102783203125 333.2779541015625,358.36102294921875 343.76068115234375,358.36102294921875 347.6950378417969,368.24102783203125 "/>
  <path d="m383.66,296.16c0,24.43 -20.09,60.21 -44.86,60.21s-44.86,-35.79 -44.86,-60.21a44.86,44.22 0 0 1 89.73,0l0,0z" fill="#d4aaff" id="svg_23"/>
  <polygon fill="#535461" id="svg_22" points="342.7748107910156,358.0210266113281 333.8152160644531,358.0210266113281 328.58502197265625,354.73101806640625 348.0050354003906,354.73101806640625 342.7748107910156,358.0210266113281 "/>
  <path d="m370.09,265.42s-46.33,25.15 -52.95,75.45" fill="#fff" id="svg_21" opacity="0.1" transform="matrix(1 0 0 1 0 0)"/>
  <path d="m335.98,149.64c-1.14,6.35 0.58,13.85 3.92,17.2c1.4,1.4 3.02,2.1 4.37,3.62c2.95,3.3 4.12,9.61 5.07,15.41c1.1,6.68 2.2,13.74 1.2,20.45c-0.64,4.28 -2.11,8.07 -2.94,12.26a14.93,25.58 0 0 0 -0.71,10.92c0.12,1.96 0.41,3.97 1.19,5.43c1.13,2.08 2.95,2.4 4.58,2.9a22.24,38.11 0 0 1 15.99,21.22" fill="none" id="svg_45" stroke="#535461" stroke-miterlimit="10" stroke-width="2" transform="matrix(1 0 0 1 0 0)"/>
  <polygon fill="#aaffff" id="svg_44" points="346.6950378417969,149.24102783203125 329.21502685546875,149.24102783203125 332.2779541015625,139.36102294921875 342.76068115234375,139.36102294921875 346.6950378417969,149.24102783203125 " transform="matrix(1 0 0 1 0 0)"/>
  <path d="m382.66,77.16c0,24.43 -20.09,60.21 -44.86,60.21s-44.86,-35.79 -44.86,-60.21a44.86,44.22 0 0 1 89.73,0l0,0z" fill="#aaffff" id="svg_43"/>
  <polygon fill="#535461" id="svg_42" points="341.7748107910156,139.02102661132812 332.8152160644531,139.02102661132812 327.58502197265625,135.73101806640625 347.0050354003906,135.73101806640625 341.7748107910156,139.02102661132812 " transform="matrix(1 0 0 1 0 0)"/>
  <path d="m369.09,46.42s-46.33,25.15 -52.95,75.45" fill="#fff" id="svg_41" opacity="0.1" transform="matrix(1 0 0 1 0 0)"/>
  <path d="m434.98,253.64c-1.14,6.35 0.58,13.85 3.92,17.2c1.4,1.4 3.02,2.1 4.37,3.62c2.95,3.3 4.12,9.61 5.07,15.41c1.1,6.68 2.2,13.74 1.2,20.45c-0.64,4.28 -2.11,8.07 -2.94,12.26a14.93,25.58 0 0 0 -0.71,10.92c0.12,1.96 0.41,3.97 1.19,5.43c1.13,2.08 2.95,2.4 4.58,2.9a22.24,38.11 0 0 1 15.99,21.22" fill="none" id="svg_50" stroke="#535461" stroke-miterlimit="10" stroke-width="2"/>
  <polygon fill="#ffd4aa" id="svg_49" points="445.6950378417969,253.24102783203125 428.21502685546875,253.24102783203125 431.2779541015625,243.36102294921875 441.76068115234375,243.36102294921875 445.6950378417969,253.24102783203125 "/>
  <path d="m481.66,181.16c0,24.43 -20.09,60.21 -44.86,60.21s-44.86,-35.79 -44.86,-60.21a44.86,44.22 0 0 1 89.73,0l0,0z" fill="#ffd4aa" id="svg_48" transform="matrix(1 0 0 1 0 0)"/>
  <polygon fill="#535461" id="svg_47" points="440.7748107910156,243.02102661132812 431.8152160644531,243.02102661132812 426.58502197265625,239.73101806640625 446.0050354003906,239.73101806640625 440.7748107910156,243.02102661132812 "/>
  <path d="m468.09,150.42s-46.33,25.15 -52.95,75.45" fill="#fff" id="svg_46" opacity="0.1"/>
  <text fill="#ffffaa" font-family="Serif" font-size="24" id="svg_51" stroke-width="0" text-anchor="middle" transform="matrix(1 0 0 1 0 0) matrix(0.482722 0 0 0.602521 102.831 71.5431)" x="319.17" xml:space="preserve" y="172.62">卜卜生日快乐哇！</text>
  <text fill="#ffffaa" font-family="Serif" font-size="24" id="svg_52" stroke-width="0" text-anchor="middle" transform="matrix(1 0 0 1 0 0) matrix(0.482722 0 0 0.602521 102.831 71.5431)" x="497.12" xml:space="preserve" y="383.8">卜卜生日快乐哇！</text>
  <text fill="#ffaaaa" font-family="Serif" font-size="24" id="svg_53" stroke-width="0" style="cursor: move;" text-anchor="middle" transform="matrix(0.482722 0 0 0.602521 102.831 71.5431)" x="488.83" xml:space="preserve" y="25.31">卜卜生日快乐哇！</text>
  <text fill="#aaaaff" font-family="Serif" font-size="24" id="svg_54" stroke-width="0" style="cursor: move;" text-anchor="middle" transform="matrix(0.482722 0 0 0.602521 102.831 71.5431)" x="698.06" xml:space="preserve" y="199.57">卜卜生日快乐哇！</text>
 </g>
</svg>