<svg width="360" height="640" xmlns="http://www.w3.org/2000/svg" data-name="Layer 1">
 <title>happy birthday</title>

 <g class="layer">
  <title>Layer 1</title>
  <text fill="#7f7f7f" font-family="Serif" font-size="24" id="svg_54" stroke-width="0" text-anchor="middle" transform="matrix(0.470369 0 0 0.529908 109.999 86.3225)" x="695.41" xml:space="preserve" y="192.85">不妨不妨,来日方长</text>
  <path fill="#aaaaff" id="svg_56"/>
  <g stroke="null" transform="translate(-14 -2) translate(-201 38) translate(555.333 13.9351) scale(1.00892 1) translate(-555.333 -13.9351) translate(555.71 13.9351) scale(0.959193 1) translate(-555.71 -13.9351) translate(553.625 13.9351) scale(1.00952 1) translate(-553.625 -13.9351)" style="vector-effect: non-scaling-stroke;">
   <title stroke="null" style="vector-effect: non-scaling-stroke;">happy birthday</title>
   <g stroke="null" transform="translate(555.333 13.9351) scale(1.00892 1) translate(-555.333 -13.9351) translate(550.425 13.9351) scale(1.00892 1) translate(-550.425 -13.9351) translate(545.561 13.9351) scale(1.00892 1) translate(-545.561 -13.9351) translate(541.107 13.9351) scale(0.959193 1) translate(-541.107 -13.9351) translate(564.127 13.9351) scale(0.959193 1) translate(-564.127 -13.9351) translate(585.92 13.9351) scale(1.00952 1) translate(-585.92 -13.9351) translate(580.395 13.9351) scale(1.00952 1) translate(-580.395 -13.9351) translate(574.921 13.9351) scale(1.00952 1) translate(-574.921 -13.9351)" style="vector-effect: non-scaling-stroke;" class="layer">
    <title stroke="null" style="vector-effect: non-scaling-stroke;">Layer 1</title>
    <path stroke="#535461" style="vector-effect: non-scaling-stroke;" stroke-width="2" stroke-miterlimit="10" id="svg_30" fill="none" d="m263.05,133.54c-1.14,6.35 0.58,13.85 3.92,17.2c1.4,1.4 3.02,2.1 4.37,3.62c2.95,3.3 4.12,9.61 5.07,15.41c1.1,6.68 2.2,13.74 1.2,20.45c-0.64,4.28 -2.11,8.07 -2.94,12.26a14.93,25.58 0 0 0 -0.71,10.92c0.12,1.96 0.41,3.97 1.19,5.43c1.13,2.08 2.95,2.4 4.58,2.9a22.24,38.11 0 0 1 15.99,21.22"/>
    <polygon stroke="null" style="vector-effect: non-scaling-stroke;" transform="matrix(1 0 0 1 0 0)" points="273.760009765625,131.78866577148438 256.2799987792969,131.78866577148438 259.34295654296875,121.90866088867188 269.82568359375,121.90866088867188 273.760009765625,131.78866577148438 " id="svg_29" fill="#ffd4aa"/>
    <path stroke="null" style="vector-effect: non-scaling-stroke;" transform="matrix(1 0 0 1 0 0)" id="svg_28" fill="#ffd4aa" d="m311.73,61.06c0,24.43 -20.09,60.21 -44.86,60.21s-44.86,-35.79 -44.86,-60.21a44.86,44.22 0 0 1 89.73,0l0,0l-0.01,0z"/>
    <polygon stroke="null" style="vector-effect: non-scaling-stroke;" points="268.83978271484375,122.92001342773438 259.88018798828125,122.92001342773438 254.64999389648438,119.6300048828125 274.07000732421875,119.6300048828125 268.83978271484375,122.92001342773438 " id="svg_27" fill="#535461"/>
    <path stroke="null" style="vector-effect: non-scaling-stroke;" opacity="0.1" id="svg_26" fill="#fff" d="m296.15,30.32s-46.33,25.15 -52.95,75.45"/>
    <path stroke="#535461" style="vector-effect: non-scaling-stroke;" stroke-width="2" stroke-miterlimit="10" id="svg_25" fill="none" d="m281.98,372.64c-1.14,6.35 0.58,13.85 3.92,17.2c1.4,1.4 3.02,2.1 4.37,3.62c2.95,3.3 4.12,9.61 5.07,15.41c1.1,6.68 2.2,13.74 1.2,20.45c-0.64,4.28 -2.11,8.07 -2.94,12.26a14.93,25.58 0 0 0 -0.71,10.92c0.12,1.96 0.41,3.97 1.19,5.43c1.13,2.08 2.95,2.4 4.58,2.9a22.24,38.11 0 0 1 15.99,21.22"/>
    <polygon stroke="null" style="vector-effect: non-scaling-stroke;" points="292.6950378417969,372.24102783203125 275.21502685546875,372.24102783203125 278.2779541015625,362.36102294921875 288.76068115234375,362.36102294921875 292.6950378417969,372.24102783203125 " id="svg_24" fill="#ffaad4"/>
    <path stroke="null" style="vector-effect: non-scaling-stroke;" id="svg_23" fill="#ffaad4" d="m328.66,300.16c0,24.43 -20.09,60.21 -44.86,60.21s-44.86,-35.79 -44.86,-60.21a44.86,44.22 0 0 1 89.73,0l0,0l-0.01,0z"/>
    <polygon stroke="null" style="vector-effect: non-scaling-stroke;" points="287.7748107910156,362.0210266113281 278.8152160644531,362.0210266113281 273.58502197265625,358.73101806640625 293.0050354003906,358.73101806640625 287.7748107910156,362.0210266113281 " id="svg_22" fill="#535461"/>
    <path stroke="null" style="vector-effect: non-scaling-stroke;" opacity="0.1" id="svg_21" fill="#fff" d="m315.09,269.42s-46.33,25.15 -52.95,75.45"/>
    <path stroke="#535461" style="vector-effect: non-scaling-stroke;" stroke-width="2" stroke-miterlimit="10" id="svg_20" fill="none" d="m281.98,372.64c-1.14,6.35 0.58,13.85 3.92,17.2c1.4,1.4 3.02,2.1 4.37,3.62c2.95,3.3 4.12,9.61 5.07,15.41c1.1,6.68 2.2,13.74 1.2,20.45c-0.64,4.28 -2.11,8.07 -2.94,12.26a14.93,25.58 0 0 0 -0.71,10.92c0.12,1.96 0.41,3.97 1.19,5.43c1.13,2.08 2.95,2.4 4.58,2.9a22.24,38.11 0 0 1 15.99,21.22"/>
    <polygon stroke="null" style="vector-effect: non-scaling-stroke;" transform="matrix(1 0 0 1 0 0)" points="292.6950378417969,372.24102783203125 275.21502685546875,372.24102783203125 278.2779541015625,362.36102294921875 288.76068115234375,362.36102294921875 292.6950378417969,372.24102783203125 " id="svg_19" fill="#d4ffaa"/>
    <path stroke="null" style="vector-effect: non-scaling-stroke;" transform="matrix(1 0 0 1 0 0)" id="svg_18" fill="#d4ffaa" d="m328.66,300.16c0,24.43 -20.09,60.21 -44.86,60.21s-44.86,-35.79 -44.86,-60.21a44.86,44.22 0 0 1 89.73,0l0,0l-0.01,0z"/>
    <polygon stroke="null" style="vector-effect: non-scaling-stroke;" points="287.7748107910156,362.0210266113281 278.8152160644531,362.0210266113281 273.58502197265625,358.73101806640625 293.0050354003906,358.73101806640625 287.7748107910156,362.0210266113281 " id="svg_17" fill="#535461"/>
    <path stroke="null" style="vector-effect: non-scaling-stroke;" opacity="0.1" id="svg_16" fill="#fff" d="m315.09,269.42s-46.33,25.15 -52.95,75.45"/>
    <path stroke="#535461" style="vector-effect: non-scaling-stroke;" stroke-width="2" stroke-miterlimit="10" id="svg_15" fill="none" d="m494.98,130.64c-1.14,6.35 0.58,13.85 3.92,17.2c1.4,1.4 3.02,2.1 4.37,3.62c2.95,3.3 4.12,9.61 5.07,15.41c1.1,6.68 2.2,13.74 1.2,20.45c-0.64,4.28 -2.11,8.07 -2.94,12.26a14.93,25.58 0 0 0 -0.71,10.92c0.12,1.96 0.41,3.97 1.19,5.43c1.13,2.08 2.95,2.4 4.58,2.9a22.24,38.11 0 0 1 15.99,21.22"/>
    <polygon stroke="null" style="vector-effect: non-scaling-stroke;" points="505.6950378417969,130.24102783203125 488.21502685546875,130.24102783203125 491.2779541015625,120.36102294921875 501.76068115234375,120.36102294921875 505.6950378417969,130.24102783203125 " id="svg_14" fill="#ffaad4"/>
    <path stroke="null" style="vector-effect: non-scaling-stroke;" transform="matrix(1 0 0 1 0 0)" id="svg_13" fill="#ffaad4" d="m541.66,58.16c0,24.43 -20.09,60.21 -44.86,60.21s-44.86,-35.79 -44.86,-60.21a44.86,44.22 0 0 1 89.73,0l0,0l-0.01,0z"/>
    <polygon stroke="null" style="vector-effect: non-scaling-stroke;" points="500.7748107910156,120.02102661132812 491.8152160644531,120.02102661132812 486.58502197265625,116.73101806640625 506.0050354003906,116.73101806640625 500.7748107910156,120.02102661132812 " id="svg_12" fill="#535461"/>
    <path stroke="null" style="vector-effect: non-scaling-stroke;" opacity="0.1" id="svg_11" fill="#fff" d="m528.09,27.42s-46.33,25.15 -52.95,75.45"/>
    <path stroke="#535461" style="vector-effect: non-scaling-stroke;" stroke-width="2" stroke-miterlimit="10" id="svg_10" fill="none" d="m505.98,374.64c-1.14,6.35 0.58,13.85 3.92,17.2c1.4,1.4 3.02,2.1 4.37,3.62c2.95,3.3 4.12,9.61 5.07,15.41c1.1,6.68 2.2,13.74 1.2,20.45c-0.64,4.28 -2.11,8.07 -2.94,12.26a14.93,25.58 0 0 0 -0.71,10.92c0.12,1.96 0.41,3.97 1.19,5.43c1.13,2.08 2.95,2.4 4.58,2.9a22.24,38.11 0 0 1 15.99,21.22"/>
    <polygon stroke="null" style="vector-effect: non-scaling-stroke;" transform="matrix(1 0 0 1 0 0)" points="516.6950378417969,374.24102783203125 499.21502685546875,374.24102783203125 502.2779541015625,364.36102294921875 512.7606811523438,364.36102294921875 516.6950378417969,374.24102783203125 " id="svg_9" fill="#aaaaff"/>
    <path stroke="null" style="vector-effect: non-scaling-stroke;" transform="matrix(1 0 0 1 0 0)" id="svg_8" fill="#aaaaff" d="m552.66,300.81c0,24.43 -20.09,60.21 -44.86,60.21s-44.86,-35.79 -44.86,-60.21a44.86,44.22 0 0 1 89.73,0l0,0l-0.01,0z"/>
    <polygon stroke="null" style="vector-effect: non-scaling-stroke;" points="511.7748107910156,364.0210266113281 502.8152160644531,364.0210266113281 497.58502197265625,360.73101806640625 517.0050354003906,360.73101806640625 511.7748107910156,364.0210266113281 " id="svg_7" fill="#535461"/>
    <path stroke="null" style="vector-effect: non-scaling-stroke;" opacity="0.1" id="svg_6" fill="#fff" d="m539.09,271.42s-46.33,25.15 -52.95,75.45"/>
    <text stroke="null" style="vector-effect: non-scaling-stroke;" y="-10.58" xml:space="preserve" x="338.13" transform="matrix(0.464192 0 0 0.566214 110.565 74.2259)" text-anchor="middle" stroke-width="0" id="svg_5" font-size="24" font-family="Serif" fill="#aaaaff">遥叩芳辰,生辰吉乐</text>
    <text stroke="null" style="vector-effect: non-scaling-stroke;" y="375.7" xml:space="preserve" x="487.89" transform="matrix(0.43331 0 0 0.493601 72.9893 119.511)" text-anchor="middle" stroke-width="0" id="svg_4" font-size="24" font-family="Serif" fill="#7f7f7f">一岁一礼,一寸欢喜</text>
    <text stroke="null" style="vector-effect: non-scaling-stroke;" y="12.66" xml:space="preserve" x="498.3" transform="matrix(0.413989 0 0 0.544485 291.982 56.6606)" text-anchor="middle" stroke-width="0" id="svg_3" font-size="24" font-family="Serif" fill="#ffffaa">岁岁年年,万般皆宜</text>
    <text stroke="null" style="vector-effect: non-scaling-stroke;" y="413.54" xml:space="preserve" x="853.25" transform="matrix(0.458151 0 0 0.529908 117.179 86.3225)" text-anchor="middle" stroke-width="0" id="svg_2" font-size="24" font-family="Serif" fill="#ffd4aa">肆意生长,如火如矩</text>
    <path stroke="null" style="vector-effect: non-scaling-stroke;" id="svg_1" fill="#aaaaff"/>
   </g>
  </g>
 </g>
</svg>