<svg width="360" height="640" xmlns="http://www.w3.org/2000/svg" data-name="Layer 1">
 <title>happy birthday</title>

 <g class="layer">
  <title>Layer 1</title>
  <text y="192.85" xml:space="preserve" x="695.41" transform="matrix(0.470369 0 0 0.529908 109.999 86.3225)" text-anchor="middle" stroke-width="0" id="svg_54" font-size="24" font-family="Serif" fill="#7f7f7f">不妨不妨,来日方长</text>
  <path id="svg_56" fill="#aaaaff"/>
  <g stroke="null" transform="translate(14 3) translate(0 1) translate(-166 -7) translate(484.164 32.9656) scale(1.01791 1) translate(-484.164 -32.9656) translate(487.401 32.9656) scale(0.983826 1) translate(-487.401 -32.9656)" style="vector-effect: non-scaling-stroke;">
   <title stroke="null" style="vector-effect: non-scaling-stroke;">happy birthday</title>
   <g stroke="null" transform="translate(484.164 32.9656) scale(1.01791 1) translate(-484.164 -32.9656) translate(475.644 32.9656) scale(1.01791 1) translate(-475.644 -32.9656) translate(467.274 32.9656) scale(1.01791 1) translate(-467.274 -32.9656) translate(459.051 32.9656) scale(1.01791 1) translate(-459.051 -32.9656) translate(450.973 32.9656) scale(1.01791 1) translate(-450.973 -32.9656) translate(443.038 32.9656) scale(1.01791 1) translate(-443.038 -32.9656) translate(438.151 32.9656) scale(0.983826 1) translate(-438.151 -32.9656)" style="vector-effect: non-scaling-stroke;" class="layer">
    <title stroke="null" style="vector-effect: non-scaling-stroke;">Layer 1</title>
    <path stroke="#535461" style="vector-effect: non-scaling-stroke;" stroke-width="2" stroke-miterlimit="10" id="svg_64" fill="none" d="m249.05,238.54c-1.14,6.35 0.58,13.85 3.92,17.2c1.4,1.4 3.02,2.1 4.37,3.62c2.95,3.3 4.12,9.61 5.07,15.41c1.1,6.68 2.2,13.74 1.2,20.45c-0.64,4.28 -2.11,8.07 -2.94,12.26a14.93,25.58 0 0 0 -0.71,10.92c0.12,1.96 0.41,3.97 1.19,5.43c1.13,2.08 2.95,2.4 4.58,2.9a22.24,38.11 0 0 1 15.99,21.22"/>
    <polygon stroke="null" style="vector-effect: non-scaling-stroke;" points="259.760009765625,236.7886632680893 242.27999877929688,236.7886632680893 245.34295654296875,226.9086583852768 255.82568359375,226.9086583852768 259.760009765625,236.7886632680893 " id="svg_63" fill="#aaffaa"/>
    <path stroke="null" style="vector-effect: non-scaling-stroke;" id="svg_62" fill="#aaffaa" d="m297.73,166.06c0,24.43 -20.09,60.21 -44.86,60.21s-44.86,-35.79 -44.86,-60.21a44.86,44.22 0 0 1 89.73,0l0,0l-0.01,0z"/>
    <polygon stroke="null" style="vector-effect: non-scaling-stroke;" points="254.8397979736328,227.92001342773438 245.8802032470703,227.92001342773438 240.64999389648438,224.6300048828125 260.07000732421875,224.6300048828125 254.8397979736328,227.92001342773438 " id="svg_61" fill="#535461"/>
    <path stroke="null" style="vector-effect: non-scaling-stroke;" transform="matrix(1 0 0 1 0 0)" opacity="0.1" id="svg_60" fill="#fff" d="m282.15,135.32s-46.33,25.15 -52.95,75.45"/>
    <path stroke="#535461" style="vector-effect: non-scaling-stroke;" stroke-width="2" stroke-miterlimit="10" id="svg_59" fill="none" d="m336.98,368.64c-1.14,6.35 0.58,13.85 3.92,17.2c1.4,1.4 3.02,2.1 4.37,3.62c2.95,3.3 4.12,9.61 5.07,15.41c1.1,6.68 2.2,13.74 1.2,20.45c-0.64,4.28 -2.11,8.07 -2.94,12.26a14.93,25.58 0 0 0 -0.71,10.92c0.12,1.96 0.41,3.97 1.19,5.43c1.13,2.08 2.95,2.4 4.58,2.9a22.24,38.11 0 0 1 15.99,21.22"/>
    <polygon stroke="null" style="vector-effect: non-scaling-stroke;" points="347.6950378417969,368.24102783203125 330.21502685546875,368.24102783203125 333.2779541015625,358.36102294921875 343.76068115234375,358.36102294921875 347.6950378417969,368.24102783203125 " id="svg_58" fill="#ffaad4"/>
    <path stroke="null" style="vector-effect: non-scaling-stroke;" id="svg_57" fill="#ffaad4" d="m383.66,296.16c0,24.43 -20.09,60.21 -44.86,60.21s-44.86,-35.79 -44.86,-60.21a44.86,44.22 0 0 1 89.73,0l0,0l-0.01,0z"/>
    <polygon stroke="null" style="vector-effect: non-scaling-stroke;" points="342.7748107910156,358.0210266113281 333.8152160644531,358.0210266113281 328.58502197265625,354.73101806640625 348.0050354003906,354.73101806640625 342.7748107910156,358.0210266113281 " id="svg_55" fill="#535461"/>
    <path stroke="null" style="vector-effect: non-scaling-stroke;" opacity="0.1" id="svg_53" fill="#fff" d="m370.09,265.42s-46.33,25.15 -52.95,75.45"/>
    <path stroke="#535461" style="vector-effect: non-scaling-stroke;" stroke-width="2" stroke-miterlimit="10" id="svg_52" fill="none" d="m336.98,368.64c-1.14,6.35 0.58,13.85 3.92,17.2c1.4,1.4 3.02,2.1 4.37,3.62c2.95,3.3 4.12,9.61 5.07,15.41c1.1,6.68 2.2,13.74 1.2,20.45c-0.64,4.28 -2.11,8.07 -2.94,12.26a14.93,25.58 0 0 0 -0.71,10.92c0.12,1.96 0.41,3.97 1.19,5.43c1.13,2.08 2.95,2.4 4.58,2.9a22.24,38.11 0 0 1 15.99,21.22"/>
    <polygon stroke="null" style="vector-effect: non-scaling-stroke;" points="347.6950378417969,368.24102783203125 330.21502685546875,368.24102783203125 333.2779541015625,358.36102294921875 343.76068115234375,358.36102294921875 347.6950378417969,368.24102783203125 " id="svg_51" fill="#aaffff"/>
    <path stroke="null" style="vector-effect: non-scaling-stroke;" transform="matrix(1 0 0 1 0 0)" id="svg_50" fill="#aaffff" d="m383.66,296.16c0,24.43 -20.09,60.21 -44.86,60.21s-44.86,-35.79 -44.86,-60.21a44.86,44.22 0 0 1 89.73,0l0,0l-0.01,0z"/>
    <polygon stroke="null" style="vector-effect: non-scaling-stroke;" points="342.7748107910156,358.0210266113281 333.8152160644531,358.0210266113281 328.58502197265625,354.73101806640625 348.0050354003906,354.73101806640625 342.7748107910156,358.0210266113281 " id="svg_49" fill="#535461"/>
    <path stroke="null" style="vector-effect: non-scaling-stroke;" opacity="0.1" id="svg_48" fill="#fff" d="m370.09,265.42s-46.33,25.15 -52.95,75.45"/>
    <path stroke="#535461" style="vector-effect: non-scaling-stroke;" stroke-width="2" stroke-miterlimit="10" id="svg_47" fill="none" d="m335.98,149.64c-1.14,6.35 0.58,13.85 3.92,17.2c1.4,1.4 3.02,2.1 4.37,3.62c2.95,3.3 4.12,9.61 5.07,15.41c1.1,6.68 2.2,13.74 1.2,20.45c-0.64,4.28 -2.11,8.07 -2.94,12.26a14.93,25.58 0 0 0 -0.71,10.92c0.12,1.96 0.41,3.97 1.19,5.43c1.13,2.08 2.95,2.4 4.58,2.9a22.24,38.11 0 0 1 15.99,21.22"/>
    <polygon stroke="null" style="vector-effect: non-scaling-stroke;" points="346.6950378417969,149.24102783203125 329.21502685546875,149.24102783203125 332.2779541015625,139.36102294921875 342.76068115234375,139.36102294921875 346.6950378417969,149.24102783203125 " id="svg_46" fill="#ffaaff"/>
    <path stroke="null" style="vector-effect: non-scaling-stroke;" transform="matrix(1 0 0 1 0 0)" id="svg_45" fill="#ffaaff" d="m382.66,77.16c0,24.43 -20.09,60.21 -44.86,60.21s-44.86,-35.79 -44.86,-60.21a44.86,44.22 0 0 1 89.73,0l0,0l-0.01,0z"/>
    <polygon stroke="null" style="vector-effect: non-scaling-stroke;" points="341.7748107910156,139.02102661132812 332.8152160644531,139.02102661132812 327.58502197265625,135.73101806640625 347.0050354003906,135.73101806640625 341.7748107910156,139.02102661132812 " id="svg_44" fill="#535461"/>
    <path stroke="null" style="vector-effect: non-scaling-stroke;" transform="matrix(1 0 0 1 0 0)" opacity="0.1" id="svg_43" fill="#fff" d="m369.09,46.42s-46.33,25.15 -52.95,75.45"/>
    <path stroke="#535461" style="vector-effect: non-scaling-stroke;" stroke-width="2" stroke-miterlimit="10" id="svg_42" fill="none" d="m434.98,253.64c-1.14,6.35 0.58,13.85 3.92,17.2c1.4,1.4 3.02,2.1 4.37,3.62c2.95,3.3 4.12,9.61 5.07,15.41c1.1,6.68 2.2,13.74 1.2,20.45c-0.64,4.28 -2.11,8.07 -2.94,12.26a14.93,25.58 0 0 0 -0.71,10.92c0.12,1.96 0.41,3.97 1.19,5.43c1.13,2.08 2.95,2.4 4.58,2.9a22.24,38.11 0 0 1 15.99,21.22"/>
    <polygon stroke="null" style="vector-effect: non-scaling-stroke;" points="445.6950378417969,253.24102783203125 428.21502685546875,253.24102783203125 431.2779541015625,243.36102294921875 441.76068115234375,243.36102294921875 445.6950378417969,253.24102783203125 " id="svg_41" fill="#ffaaaa"/>
    <path stroke="null" style="vector-effect: non-scaling-stroke;" transform="matrix(1 0 0 1 0 0)" id="svg_40" fill="#ffaaaa" d="m481.66,179.81c0,24.43 -20.09,60.21 -44.86,60.21s-44.86,-35.79 -44.86,-60.21a44.86,44.22 0 0 1 89.73,0l0,0l-0.01,0z"/>
    <polygon stroke="null" style="vector-effect: non-scaling-stroke;" points="440.7748107910156,243.02102661132812 431.8152160644531,243.02102661132812 426.58502197265625,239.73101806640625 446.0050354003906,239.73101806640625 440.7748107910156,243.02102661132812 " id="svg_39" fill="#535461"/>
    <path stroke="null" style="vector-effect: non-scaling-stroke;" transform="matrix(1 0 0 1 0 0)" opacity="0.1" id="svg_38" fill="#fff" d="m468.09,150.42s-46.33,25.15 -52.95,75.45"/>
    <text stroke="null" style="vector-effect: non-scaling-stroke;" y="174.87" xml:space="preserve" x="307.97" transform="matrix(1 0 0 1 0 0) matrix(0.464192 0 0 0.566214 110.565 74.2259)" text-anchor="middle" stroke-width="0" id="svg_37" font-size="24" font-family="Serif" fill="#aaaaff">浅子深深,长乐未央</text>
    <text stroke="null" style="vector-effect: non-scaling-stroke;" y="383.8" xml:space="preserve" x="497.12" transform="matrix(0.43331 0 0 0.493601 123.989 111.511)" text-anchor="middle" stroke-width="0" id="svg_36" font-size="24" font-family="Serif" fill="#7f7f7f">春祺夏安,秋绥冬禧</text>
    <text stroke="null" style="vector-effect: non-scaling-stroke;" y="16.34" xml:space="preserve" x="488.64" transform="matrix(0.427483 0 0 0.602521 127.888 74.2458)" text-anchor="middle" stroke-width="0" id="svg_35" font-size="24" font-family="Serif" fill="#ffffaa">旦逢良辰,顺颂时宜</text>
    <text stroke="null" style="vector-effect: non-scaling-stroke;" y="185.2" xml:space="preserve" x="698.28" transform="matrix(0.458151 0 0 0.529908 117.179 86.3225)" text-anchor="middle" stroke-width="0" id="svg_34" font-size="24" font-family="Serif" fill="#aaffff">忠于自己,热爱生活</text>
    <path stroke="null" style="vector-effect: non-scaling-stroke;" id="svg_33" fill="#aaaaff"/>
   </g>
  </g>
 </g>
</svg>