<svg width="300" height="727.08" xmlns="http://www.w3.org/2000/svg" data-name="Layer 1">
 <title>happy birthday</title>

 <g class="layer">
  <title>Layer 1</title>
  <g stroke="null">
   <title stroke="null">happy birthday</title>
   <g stroke="null" class="layer">
    <title stroke="null">Layer 1</title>
    <path stroke="#535461" stroke-width="2" stroke-miterlimit="10" id="svg_29" fill="none" d="m82.78598,248.29484c-0.75882,4.58102 0.38607,9.99167 2.60927,12.40843c0.93188,1.00999 2.0102,1.51498 2.9088,2.61154c1.96361,2.38069 2.7424,6.93285 3.37475,11.11709c0.73219,4.81909 1.46439,9.91231 0.79876,14.75305c-0.426,3.08768 -1.40448,5.82186 -1.95695,8.84461a9.93786,18.45393 0 0 0 -0.4726,7.87791c0.07988,1.41398 0.27291,2.86404 0.7921,3.91731c0.75216,1.50055 1.96361,1.73141 3.04859,2.09212a14.80362,27.49333 0 0 1 10.64343,15.30854"/>
    <polygon stroke="null" points="89.91490173339844,248.00628662109375 78.27967071533203,248.00628662109375 80.31845092773438,240.87864685058594 87.29607391357422,240.87864685058594 89.91490173339844,248.00628662109375 " id="svg_28" fill="#ffaad4"/>
    <path stroke="null" id="svg_27" fill="#ffaad4" d="m115.18887,196.0063c0,17.6243 -13.37251,43.43672 -29.86018,43.43672s-29.86018,-25.81963 -29.86018,-43.43672a29.86018,31.90121 0 0 1 59.72701,0l0,0l-0.00666,0z"/>
    <polygon stroke="null" points="86.63984680175781,240.63336181640625 80.67607116699219,240.63336181640625 77.19468688964844,238.2598876953125 90.12122344970703,238.2598876953125 86.63984680175781,240.63336181640625 " id="svg_26" fill="#535461"/>
    <path stroke="null" opacity="0.1" id="svg_25" fill="#fff" d="m104.81835,173.82984s-30.83865,18.14372 -35.24513,54.43116"/>
    <path stroke="#535461" stroke-width="2" stroke-miterlimit="10" id="svg_24" fill="none" d="m141.31486,342.15162c-0.75882,4.58102 0.38607,9.99167 2.60927,12.40843c0.93188,1.00999 2.0102,1.51498 2.9088,2.61154c1.96361,2.38069 2.7424,6.93285 3.37475,11.11709c0.73219,4.81909 1.46439,9.91231 0.79876,14.75305c-0.426,3.08768 -1.40448,5.82186 -1.95695,8.84461a9.93786,18.45393 0 0 0 -0.4726,7.87791c0.07988,1.41398 0.27291,2.86404 0.7921,3.91731c0.75216,1.50055 1.96361,1.73141 3.04859,2.09212a14.80362,27.49333 0 0 1 10.64343,15.30854"/>
    <polygon stroke="null" points="148.44711303710938,341.8638000488281 136.81187438964844,341.8638000488281 138.85067749023438,334.7361755371094 145.8282928466797,334.7361755371094 148.44711303710938,341.8638000488281 " id="svg_23" fill="#ffaad4"/>
    <path stroke="null" id="svg_22" fill="#ffaad4" d="m172.38648,289.86308c0,17.6243 -13.37251,43.43672 -29.86018,43.43672s-29.86018,-25.81963 -29.86018,-43.43672a29.86018,31.90121 0 0 1 59.72701,0l0,0l-0.00666,0z"/>
    <polygon stroke="null" points="145.1720733642578,334.4908752441406 139.20826721191406,334.4908752441406 135.72689819335938,332.1174011230469 148.6534423828125,332.1174011230469 145.1720733642578,334.4908752441406 " id="svg_21" fill="#535461"/>
    <path stroke="null" opacity="0.1" id="svg_20" fill="#fff" d="m163.35388,267.68662s-30.83865,18.14372 -35.24513,54.43116"/>
    <path stroke="#535461" stroke-width="2" stroke-miterlimit="10" id="svg_19" fill="none" d="m141.31486,342.15162c-0.75882,4.58102 0.38607,9.99167 2.60927,12.40843c0.93188,1.00999 2.0102,1.51498 2.9088,2.61154c1.96361,2.38069 2.7424,6.93285 3.37475,11.11709c0.73219,4.81909 1.46439,9.91231 0.79876,14.75305c-0.426,3.08768 -1.40448,5.82186 -1.95695,8.84461a9.93786,18.45393 0 0 0 -0.4726,7.87791c0.07988,1.41398 0.27291,2.86404 0.7921,3.91731c0.75216,1.50055 1.96361,1.73141 3.04859,2.09212a14.80362,27.49333 0 0 1 10.64343,15.30854"/>
    <polygon stroke="null" points="148.44711303710938,341.8638000488281 136.81187438964844,341.8638000488281 138.85067749023438,334.7361755371094 145.8282928466797,334.7361755371094 148.44711303710938,341.8638000488281 " id="svg_18" fill="#d4aaff"/>
    <path stroke="null" id="svg_17" fill="#d4aaff" d="m172.38648,289.86308c0,17.6243 -13.37251,43.43672 -29.86018,43.43672s-29.86018,-25.81963 -29.86018,-43.43672a29.86018,31.90121 0 0 1 59.72701,0l0,0l-0.00666,0z"/>
    <polygon stroke="null" points="145.1720733642578,334.4908752441406 139.20826721191406,334.4908752441406 135.72689819335938,332.1174011230469 148.6534423828125,332.1174011230469 145.1720733642578,334.4908752441406 " id="svg_16" fill="#535461"/>
    <path stroke="null" opacity="0.1" id="svg_15" fill="#fff" d="m163.35388,267.68662s-30.83865,18.14372 -35.24513,54.43116"/>
    <path stroke="#535461" stroke-width="2" stroke-miterlimit="10" id="svg_14" fill="none" d="m140.64923,184.16057c-0.75882,4.58102 0.38607,9.99167 2.60927,12.40843c0.93188,1.00999 2.0102,1.51498 2.9088,2.61154c1.96361,2.38069 2.7424,6.93285 3.37475,11.11709c0.73219,4.81909 1.46439,9.91231 0.79876,14.75305c-0.426,3.08768 -1.40448,5.82186 -1.95695,8.84461a9.93786,18.45393 0 0 0 -0.4726,7.87791c0.07988,1.41398 0.27291,2.86404 0.7921,3.91731c0.75216,1.50055 1.96361,1.73141 3.04859,2.09212a14.80362,27.49333 0 0 1 10.64343,15.30854"/>
    <polygon stroke="null" points="147.781494140625,183.87274169921875 136.146240234375,183.87274169921875 138.18504333496094,176.7451171875 145.16265869140625,176.7451171875 147.781494140625,183.87274169921875 " id="svg_13" fill="#aaffff"/>
    <path stroke="null" id="svg_12" fill="#aaffff" d="m171.72085,131.87203c0,17.6243 -13.37251,43.43672 -29.86018,43.43672s-29.86018,-25.81963 -29.86018,-43.43672a29.86018,31.90121 0 0 1 59.72701,0l0,0l-0.00666,0z"/>
    <polygon stroke="null" points="144.50643920898438,176.4998321533203 138.5426483154297,176.4998321533203 135.06124877929688,174.1263427734375 147.98782348632812,174.1263427734375 144.50643920898438,176.4998321533203 " id="svg_11" fill="#535461"/>
    <path stroke="null" opacity="0.1" id="svg_10" fill="#fff" d="m162.68825,109.69557s-30.83865,18.14372 -35.24513,54.43116"/>
    <path stroke="#535461" stroke-width="2" stroke-miterlimit="10" id="svg_9" fill="none" d="m206.54663,259.18828c-0.75882,4.58102 0.38607,9.99167 2.60927,12.40843c0.93188,1.00999 2.0102,1.51498 2.9088,2.61154c1.96361,2.38069 2.7424,6.93285 3.37475,11.11709c0.73219,4.81909 1.46439,9.91231 0.79876,14.75305c-0.426,3.08768 -1.40448,5.82186 -1.95695,8.84461a9.93786,18.45393 0 0 0 -0.4726,7.87791c0.07988,1.41398 0.27291,2.86404 0.7921,3.91731c0.75216,1.50055 1.96361,1.73141 3.04859,2.09212a14.80362,27.49333 0 0 1 10.64343,15.30854"/>
    <polygon stroke="null" points="213.67889404296875,258.9004669189453 202.04364013671875,258.9004669189453 204.0824432373047,251.7728271484375 211.06007385253906,251.7728271484375 213.67889404296875,258.9004669189453 " id="svg_8" fill="#ffd4aa"/>
    <path stroke="null" id="svg_7" fill="#ffd4aa" d="m237.61825,206.89974c0,17.6243 -13.37251,43.43672 -29.86018,43.43672s-29.86018,-25.81963 -29.86018,-43.43672a29.86018,31.90121 0 0 1 59.72701,0l0,0l-0.00666,0z"/>
    <polygon stroke="null" points="210.40383911132812,251.5275421142578 204.44003295898438,251.5275421142578 200.9586639404297,249.154052734375 213.88522338867188,249.154052734375 210.40383911132812,251.5275421142578 " id="svg_6" fill="#535461"/>
    <path stroke="null" opacity="0.1" id="svg_5" fill="#fff" d="m228.58565,184.72328s-30.83865,18.14372 -35.24513,54.43116"/>
    <text stroke="null" y="352.31612" xml:space="preserve" x="64.25483" transform="matrix(0.321314 0 0 0.434671 67.3661 49.7112)" text-anchor="middle" stroke-width="0" id="svg_4" font-size="24" font-family="Serif" fill="#ffffaa">卜卜生日快乐哇！</text>
    <text stroke="null" y="563.49612" xml:space="preserve" x="242.20483" transform="matrix(0.321314 0 0 0.434671 67.3661 49.7112)" text-anchor="middle" stroke-width="0" id="svg_3" font-size="24" font-family="Serif" fill="#ffffaa">卜卜生日快乐哇！</text>
    <text stroke="null" y="205.00612" xml:space="preserve" x="233.91483" transform="matrix(0.321314 0 0 0.434671 67.3661 49.7112)" text-anchor="middle" stroke-width="0" id="svg_2" font-size="24" font-family="Serif" fill="#ffaaaa">卜卜生日快乐哇！</text>
    <text stroke="null" y="379.26612" xml:space="preserve" x="443.14483" transform="matrix(0.321314 0 0 0.434671 67.3661 49.7112)" text-anchor="middle" stroke-width="0" id="svg_1" font-size="24" font-family="Serif" fill="#aaaaff">卜卜生日快乐哇！</text>
   </g>
  </g>
 </g>
</svg>