<?xml version="1.0" standalone="no"?><!DOCTYPE svg PUBLIC "-//W3C//DTD SVG 1.1//EN" "http://www.w3.org/Graphics/SVG/1.1/DTD/svg11.dtd"><svg height="437" node-id="1" sillyvg="true" template-height="437" template-width="519" version="1.1" viewBox="0 0 519 437" width="519" xmlns="http://www.w3.org/2000/svg" xmlns:xlink="http://www.w3.org/1999/xlink"><defs node-id="56"></defs><path d="M 88.43 348.06 L 136.38 331.77 L 133.76 409.12 L 88.43 348.06 Z" fill="#aab7c1" fill-rule="nonzero" node-id="58" stroke="none" target-height="77.350006" target-width="47.950005" target-x="88.43" target-y="331.77"></path><path d="M 158.98 319.78 L 204.65 297.17 L 212.39 373.63 L 158.98 319.78 Z" fill="#f1bf82" fill-rule="nonzero" node-id="60" stroke="none" target-height="76.45999" target-width="53.410004" target-x="158.98" target-y="297.17"></path><path d="M 229.87 278.98 L 272.00 249.70 L 291.48 323.19 L 229.87 278.98 Z" fill="#f1d18a" fill-rule="nonzero" node-id="62" stroke="none" target-height="73.490005" target-width="61.610016" target-x="229.87" target-y="249.7"></path><path d="M 295.61 232.10 L 333.07 196.90 L 363.56 266.13 L 295.61 232.10 Z" fill="#a7b6b9" fill-rule="nonzero" node-id="64" stroke="none" target-height="69.23001" target-width="67.95001" target-x="295.61" target-y="196.9"></path><path d="M 352.00 178.36 L 384.93 138.84 L 423.95 203.36 L 352.00 178.36 Z" fill="#f0ac8e" fill-rule="nonzero" node-id="66" stroke="none" target-height="64.520004" target-width="71.95001" target-x="352" target-y="138.84"></path><path d="M 399.29 115.66 L 429.52 74.08 L 473.18 135.31 L 399.29 115.66 Z" fill="#e7d28b" fill-rule="nonzero" node-id="68" stroke="none" target-height="61.229996" target-width="73.889984" target-x="399.29" target-y="74.08"></path><path d="M 443.63 55.55 L 470.15 11.58 L 519.29 68.34 L 443.63 55.55 Z" fill="#ebc187" fill-rule="nonzero" node-id="70" stroke="none" target-height="56.759995" target-width="75.65997" target-x="443.63" target-y="11.58"></path><path d="M 8.64 369.98 L 57.78 359.73 L 45.91 436.83 L 8.64 369.98 Z" fill="#eda78e" fill-rule="nonzero" node-id="72" stroke="none" target-height="77.099976" target-width="49.14" target-x="8.64" target-y="359.73"></path><g node-id="258"><path d="M 1.52 370.15 L 17.54 367.08 L 33.45 363.59 L 49.23 359.69 L 64.91 355.38 L 80.48 350.65 L 95.93 345.51 L 111.21 339.97 L 126.35 334.03 L 141.35 327.69 L 156.20 320.94 L 172.81 312.76 L 188.64 304.41 L 203.70 295.89 L 218.02 287.21 L 232.29 278.02 L 245.80 268.83 L 258.58 259.64 L 270.67 250.45 L 286.57 237.65 L 301.19 225.17 L 314.59 212.98 L 327.70 200.40 L 339.56 188.45 L 350.25 177.11 L 365.47 160.09 L 378.07 145.17 L 389.58 130.90 L 398.52 119.46 L 409.04 105.57 L 419.23 91.45 L 429.07 77.11 L 438.59 62.53 L 447.76 47.74 L 456.58 32.74 L 465.05 17.54 L 473.18 2.12" fill="none" group-id="1" node-id="76" stroke="#ea9569" stroke-linecap="round" stroke-width="3" target-height="368.03" target-width="471.66" target-x="1.52" target-y="2.12"></path></g><g node-id="259"><path d="M 27.89 380.59 L 30.17 391.05 L 32.13 401.59 L 32.49 402.34 L 33.09 402.65 L 33.81 402.61 L 34.48 402.26 L 34.93 401.65 L 35.02 400.79 L 33.07 390.27 L 30.78 379.79 L 30.37 379.05 L 29.74 378.75 L 29.00 378.78 L 28.34 379.13 L 27.92 379.73 L 27.89 380.59 Z" fill="#fff6e5" fill-rule="nonzero" group-id="2" node-id="81" stroke="none" target-height="23.899994" target-width="7.130001" target-x="27.89" target-y="378.75"></path></g><g node-id="260"><path d="M 29.91 380.46 L 32.19 378.61 L 33.48 377.92 L 34.91 377.58 L 35.95 377.68 L 36.72 378.01 L 37.30 378.57 L 37.83 379.71 L 37.91 381.15 L 37.46 382.76 L 36.57 384.09 L 35.38 385.19 L 33.96 386.13 L 31.01 387.63 L 30.39 388.19 L 30.24 388.86 L 30.46 389.55 L 30.98 390.10 L 31.67 390.37 L 32.53 390.22 L 34.83 389.00 L 37.08 387.48 L 39.01 385.64 L 40.36 383.54 L 40.86 382.00 L 40.93 380.28 L 40.53 378.32 L 39.76 376.83 L 38.61 375.68 L 37.18 374.91 L 35.53 374.59 L 33.29 374.83 L 31.28 375.67 L 29.43 376.91 L 27.71 378.34 L 27.25 379.05 L 27.29 379.74 L 27.68 380.35 L 28.31 380.76 L 29.05 380.84 L 29.83 380.46 Z" fill="#fff6e5" fill-rule="nonzero" group-id="3" node-id="86" stroke="none" target-height="15.779999" target-width="13.68" target-x="27.25" target-y="374.59"></path></g><g node-id="261"><path d="M 32.24 390.22 L 33.62 389.21 L 35.49 388.64 L 37.50 388.56 L 39.45 388.98 L 40.63 389.54 L 41.55 390.31 L 42.24 391.31 L 42.63 392.88 L 42.38 394.44 L 41.63 395.91 L 40.46 397.27 L 39.02 398.37 L 37.47 399.15 L 35.85 399.54 L 34.40 399.45 L 33.54 399.47 L 32.95 399.88 L 32.60 400.54 L 32.56 401.27 L 32.86 401.91 L 33.60 402.34 L 35.13 402.55 L 36.66 402.46 L 38.24 402.07 L 40.46 401.03 L 42.45 399.51 L 44.06 397.61 L 45.15 395.48 L 45.53 393.95 L 45.57 392.40 L 45.26 390.79 L 44.63 389.43 L 43.76 388.29 L 42.63 387.33 L 40.65 386.28 L 38.38 385.68 L 36.04 385.56 L 33.78 385.92 L 31.72 386.77 L 30.07 388.09 L 29.69 388.87 L 29.76 389.60 L 30.17 390.24 L 30.78 390.63 L 31.47 390.67 L 32.19 390.22 Z" fill="#fff6e5" fill-rule="nonzero" group-id="4" node-id="91" stroke="none" target-height="16.98999" target-width="15.879999" target-x="29.69" target-y="385.56"></path></g><g node-id="262"><path d="M 112.63 355.56 L 114.47 354.16 L 116.47 353.06 L 118.63 352.24 L 119.35 351.78 L 119.64 351.11 L 119.59 350.37 L 119.25 349.72 L 118.66 349.33 L 117.83 349.34 L 115.19 350.37 L 112.76 351.74 L 110.52 353.46 L 110.07 354.17 L 110.10 354.86 L 110.49 355.47 L 111.12 355.88 L 111.86 355.96 L 112.64 355.59 Z" fill="#fff6e5" fill-rule="nonzero" group-id="5" node-id="96" stroke="none" target-height="6.630005" target-width="9.57" target-x="110.07" target-y="349.33"></path></g><g node-id="263"><path d="M 114.29 355.24 L 116.90 361.08 L 119.23 367.02 L 121.29 373.08 L 121.76 373.80 L 122.43 374.10 L 123.18 374.06 L 123.82 373.72 L 124.21 373.13 L 124.18 372.28 L 122.03 365.98 L 119.60 359.79 L 116.88 353.72 L 116.33 353.10 L 115.66 352.95 L 114.98 353.17 L 114.41 353.69 L 114.14 354.38 L 114.29 355.24 Z" fill="#fff6e5" fill-rule="nonzero" group-id="6" node-id="101" stroke="none" target-height="21.149994" target-width="10.07" target-x="114.14" target-y="352.95"></path></g><g node-id="264"><path d="M 120.65 377.39 L 128.10 374.00 L 128.73 373.45 L 128.88 372.80 L 128.66 372.12 L 128.15 371.55 L 127.45 371.27 L 126.59 371.41 L 119.14 374.80 L 118.51 375.35 L 118.36 376.00 L 118.58 376.68 L 119.09 377.25 L 119.79 377.53 L 120.65 377.39 Z" fill="#fff6e5" fill-rule="nonzero" group-id="7" node-id="106" stroke="none" target-height="6.26001" target-width="10.520004" target-x="118.36" target-y="371.27"></path></g><g node-id="265"><path d="M 182.52 323.46 L 192.37 344.05 L 192.93 344.67 L 193.59 344.82 L 194.28 344.60 L 194.84 344.09 L 195.11 343.39 L 194.96 342.54 L 185.12 321.94 L 184.56 321.32 L 183.89 321.17 L 183.20 321.39 L 182.64 321.91 L 182.37 322.60 L 182.52 323.46 Z" fill="#fff6e5" fill-rule="nonzero" group-id="8" node-id="111" stroke="none" target-height="23.649994" target-width="12.7400055" target-x="182.37" target-y="321.17"></path></g><g node-id="266"><path d="M 185.35 323.54 L 186.07 322.39 L 186.87 321.73 L 187.78 321.44 L 189.27 321.55 L 190.76 322.26 L 192.00 323.42 L 192.81 324.87 L 193.10 326.54 L 192.94 328.05 L 192.33 329.48 L 191.39 330.75 L 190.22 331.80 L 188.81 332.65 L 188.19 333.22 L 188.04 333.89 L 188.26 334.58 L 188.77 335.14 L 189.47 335.40 L 190.32 335.24 L 191.91 334.29 L 193.26 333.14 L 194.38 331.79 L 195.25 330.26 L 195.81 328.66 L 196.07 326.97 L 195.98 325.27 L 195.51 323.59 L 194.63 321.89 L 193.54 320.62 L 192.28 319.65 L 190.80 318.93 L 189.22 318.53 L 187.69 318.47 L 186.19 318.76 L 184.83 319.40 L 183.69 320.46 L 182.74 322.02 L 182.62 322.88 L 182.91 323.59 L 183.48 324.11 L 184.16 324.32 L 184.81 324.18 L 185.33 323.54 Z" fill="#fff6e5" fill-rule="nonzero" group-id="9" node-id="116" stroke="none" target-height="16.929993" target-width="13.450012" target-x="182.62" target-y="318.47"></path></g><g node-id="267"><path d="M 190.15 336.28 L 193.84 336.16 L 197.44 336.59 L 201.00 337.57 L 201.84 337.62 L 202.42 337.25 L 202.75 336.61 L 202.79 335.85 L 202.50 335.17 L 201.79 334.67 L 197.97 333.62 L 194.11 333.16 L 190.15 333.28 L 189.34 333.59 L 188.88 334.19 L 188.72 334.93 L 188.87 335.63 L 189.33 336.13 L 190.15 336.28 Z" fill="#fff6e5" fill-rule="nonzero" group-id="10" node-id="121" stroke="none" target-height="4.4599915" target-width="14.069992" target-x="188.72" target-y="333.16"></path></g><g node-id="268"><path d="M 252.13 280.91 L 264.13 271.28 L 264.61 270.60 L 264.58 269.93 L 264.20 269.32 L 263.56 268.91 L 262.81 268.81 L 262.01 269.16 L 250.01 278.79 L 249.53 279.47 L 249.56 280.14 L 249.94 280.75 L 250.58 281.16 L 251.33 281.26 L 252.13 280.91 Z" fill="#fff6e5" fill-rule="nonzero" group-id="11" node-id="126" stroke="none" target-height="12.450012" target-width="15.079987" target-x="249.53" target-y="268.81"></path></g><g node-id="269"><path d="M 256.87 277.93 L 261.21 282.88 L 265.22 288.10 L 266.65 290.48 L 268.06 292.82 L 268.93 293.70 L 270.12 294.03 L 271.02 293.72 L 271.57 292.93 L 271.69 292.06 L 271.37 291.25 L 270.64 290.64 L 269.68 290.57 L 269.46 290.57 L 268.71 290.93 L 268.40 291.52 L 268.43 292.23 L 268.79 292.91 L 269.39 293.36 L 270.26 293.46 L 270.48 293.46 L 268.78 292.77 L 268.67 292.13 L 270.12 291.03 L 269.67 290.97 L 270.97 291.72 L 269.86 289.88 L 268.78 287.98 L 265.46 283.41 L 262.33 279.54 L 259.00 275.81 L 258.27 275.37 L 257.57 275.42 L 256.95 275.81 L 256.55 276.44 L 256.48 277.17 L 256.87 277.93 Z" fill="#fff6e5" fill-rule="nonzero" group-id="12" node-id="131" stroke="none" target-height="18.660004" target-width="15.209991" target-x="256.48" target-y="275.37"></path></g><g node-id="270"><path d="M 317.40 229.31 L 321.69 234.47 L 326.19 239.43 L 330.91 244.21 L 331.67 244.62 L 332.39 244.56 L 333.01 244.16 L 333.41 243.54 L 333.46 242.83 L 333.03 242.09 L 328.31 237.31 L 323.81 232.35 L 319.52 227.19 L 318.84 226.71 L 318.17 226.74 L 317.56 227.12 L 317.15 227.76 L 317.05 228.51 L 317.40 229.31 Z" fill="#fff6e5" fill-rule="nonzero" group-id="13" node-id="136" stroke="none" target-height="17.909988" target-width="16.410004" target-x="317.05" target-y="226.71"></path></g><g node-id="271"><path d="M 326.69 237.67 L 335.44 228.26 L 335.83 227.49 L 335.76 226.76 L 335.35 226.13 L 334.74 225.74 L 334.04 225.70 L 333.32 226.14 L 324.57 235.55 L 324.16 236.31 L 324.23 237.03 L 324.63 237.66 L 325.25 238.05 L 325.95 238.10 L 326.69 237.67 Z" fill="#fff6e5" fill-rule="nonzero" group-id="14" node-id="141" stroke="none" target-height="12.400009" target-width="11.669983" target-x="324.16" target-y="225.7"></path></g><g node-id="272"><path d="M 326.44 220.00 L 330.86 225.30 L 335.57 230.31 L 340.57 235.06 L 341.35 235.44 L 342.08 235.37 L 342.71 234.96 L 343.10 234.35 L 343.14 233.66 L 342.69 232.94 L 337.67 228.19 L 332.95 223.18 L 328.52 217.88 L 327.84 217.40 L 327.18 217.42 L 326.58 217.80 L 326.16 218.45 L 326.06 219.20 L 326.40 220.00 Z" fill="#fff6e5" fill-rule="nonzero" group-id="15" node-id="146" stroke="none" target-height="18.040009" target-width="17.080017" target-x="326.06" target-y="217.4"></path></g><g node-id="273"><path d="M 372.89 172.36 L 387.77 184.60 L 388.56 184.95 L 389.31 184.86 L 389.95 184.45 L 390.33 183.84 L 390.36 183.17 L 389.89 182.48 L 375.01 170.24 L 374.22 169.89 L 373.47 169.98 L 372.83 170.39 L 372.45 171.00 L 372.42 171.67 L 372.89 172.36 Z" fill="#fff6e5" fill-rule="nonzero" group-id="16" node-id="151" stroke="none" target-height="15.059998" target-width="17.939972" target-x="372.42" target-y="169.89"></path></g><g node-id="274"><path d="M 374.74 171.12 L 375.37 169.21 L 376.53 167.55 L 378.10 166.20 L 379.95 165.22 L 381.96 164.66 L 383.97 164.58 L 385.90 165.03 L 387.62 166.07 L 388.96 167.53 L 389.97 169.20 L 390.63 171.04 L 390.91 173.00 L 390.86 174.86 L 390.52 177.77 L 390.19 179.26 L 389.77 180.44 L 389.15 181.31 L 388.47 181.56 L 387.65 181.75 L 387.18 182.26 L 387.02 182.97 L 387.18 183.71 L 387.65 184.28 L 388.47 184.56 L 389.72 184.41 L 390.72 183.94 L 391.54 183.14 L 392.47 181.57 L 393.13 179.69 L 393.78 176.11 L 393.96 174.00 L 393.83 171.95 L 393.40 169.94 L 392.68 168.00 L 391.69 166.20 L 390.41 164.52 L 388.87 163.24 L 387.19 162.34 L 385.33 161.81 L 383.39 161.61 L 381.46 161.73 L 379.52 162.17 L 377.67 162.90 L 376.00 163.89 L 374.51 165.16 L 373.28 166.65 L 372.39 168.36 L 371.84 170.32 L 371.94 171.18 L 372.39 171.79 L 373.07 172.14 L 373.78 172.18 L 374.38 171.87 L 374.74 171.12 Z" fill="#fff6e5" fill-rule="nonzero" group-id="17" node-id="156" stroke="none" target-height="22.949997" target-width="22.119995" target-x="371.84" target-y="161.61"></path></g><g node-id="275"><path d="M 422.28 103.09 L 437.87 122.29 L 438.51 122.75 L 439.13 122.76 L 439.71 122.45 L 440.15 121.89 L 440.35 121.21 L 440.22 120.47 L 439.63 119.24 L 439.07 118.62 L 438.41 118.47 L 437.72 118.69 L 437.16 119.21 L 436.89 119.90 L 437.04 120.76 L 437.63 121.98 L 439.99 120.17 L 424.40 100.97 L 423.71 100.50 L 423.04 100.52 L 422.43 100.91 L 422.02 101.55 L 421.93 102.30 L 422.28 103.09 Z" fill="#fff6e5" fill-rule="nonzero" group-id="18" node-id="161" stroke="none" target-height="22.260002" target-width="18.420013" target-x="421.93" target-y="100.5"></path></g><g node-id="276"><path d="M 424.66 103.06 L 426.03 102.97 L 427.89 103.36 L 431.73 104.87 L 434.91 106.31 L 440.70 108.81 L 446.37 111.57 L 447.53 108.82 L 446.28 108.33 L 445.45 108.26 L 444.88 108.62 L 444.54 109.25 L 444.50 110.01 L 444.79 110.71 L 445.48 111.23 L 446.73 111.72 L 447.48 111.78 L 448.07 111.45 L 448.46 110.86 L 448.60 110.16 L 448.43 109.49 L 447.88 108.98 L 441.49 105.90 L 434.95 103.12 L 431.44 101.57 L 429.50 100.78 L 427.56 100.18 L 425.62 99.91 L 423.86 100.12 L 423.13 100.58 L 422.83 101.24 L 422.87 101.98 L 423.21 102.63 L 423.81 103.02 L 424.66 103.02 Z" fill="#fff6e5" fill-rule="nonzero" group-id="19" node-id="166" stroke="none" target-height="11.869995" target-width="25.77002" target-x="422.83" target-y="99.91"></path></g><g node-id="277"><path d="M 436.02 113.60 L 436.92 111.48 L 438.19 109.65 L 439.84 108.05 L 440.27 107.43 L 440.28 106.77 L 439.97 106.14 L 439.42 105.67 L 438.75 105.48 L 438.02 105.70 L 437.47 106.05 L 436.90 106.68 L 436.78 107.40 L 437.01 108.11 L 437.51 108.65 L 438.17 108.88 L 438.99 108.64 L 439.54 108.29 L 437.72 105.93 L 435.72 107.92 L 434.20 110.20 L 433.12 112.80 L 433.10 113.65 L 433.49 114.24 L 434.14 114.58 L 434.89 114.62 L 435.55 114.32 L 436.02 113.60 Z" fill="#fff6e5" fill-rule="nonzero" group-id="20" node-id="171" stroke="none" target-height="9.139999" target-width="7.1799927" target-x="433.1" target-y="105.48"></path></g><g node-id="278"><path d="M 461.81 44.86 L 467.47 45.13 L 473.13 45.06 L 475.08 44.86 L 475.93 44.58 L 476.57 44.09 L 476.94 43.38 L 477.02 42.21 L 476.76 41.16 L 476.27 40.13 L 475.09 38.21 L 470.58 30.21 L 470.18 29.79 L 469.67 29.55 L 469.11 29.53 L 468.56 29.72 L 468.12 30.10 L 467.87 30.60 L 467.82 31.16 L 467.99 31.72 L 471.99 38.90 L 472.70 39.96 L 473.63 41.52 L 473.90 42.26 L 473.85 42.67 L 475.15 41.93 L 468.45 42.12 L 461.76 41.85 L 460.94 42.03 L 460.48 42.53 L 460.32 43.24 L 460.48 43.98 L 460.95 44.56 L 461.76 44.85 Z" fill="#fff6e5" fill-rule="nonzero" group-id="21" node-id="176" stroke="none" target-height="15.6" target-width="16.699982" target-x="460.32" target-y="29.53"></path></g><g node-id="279"><path d="M 475.52 44.58 L 486.21 50.36 L 487.05 50.55 L 487.73 50.30 L 488.24 49.75 L 488.46 49.05 L 488.33 48.36 L 487.72 47.77 L 477.04 41.99 L 476.20 41.80 L 475.51 42.05 L 475.00 42.60 L 474.78 43.30 L 474.91 43.99 L 475.52 44.58 Z" fill="#fff6e5" fill-rule="nonzero" group-id="22" node-id="181" stroke="none" target-height="8.75" target-width="13.679993" target-x="474.78" target-y="41.8"></path></g><path d="M 8.26 131.50 L 57.82 125.06 L 43.67 200.20 L 8.26 131.50 Z" fill="#f2be85" fill-rule="nonzero" node-id="184" stroke="none" target-height="75.14" target-width="49.559998" target-x="8.26" target-y="125.06"></path><path d="M 80.48 118.87 L 129.15 107.50 L 122.59 183.68 L 80.48 118.87 Z" fill="#a5b5bd" fill-rule="nonzero" node-id="186" stroke="none" target-height="76.17999" target-width="48.66999" target-x="80.48" target-y="107.5"></path><path d="M 151.82 98.14 L 198.34 79.86 L 202.84 156.19 L 151.82 98.14 Z" fill="#eeab89" fill-rule="nonzero" node-id="188" stroke="none" target-height="76.33" target-width="51.01999" target-x="151.82" target-y="79.86"></path><path d="M 220.01 69.07 L 263.53 44.49 L 278.63 119.45 L 220.01 69.07 Z" fill="#ead287" fill-rule="nonzero" node-id="190" stroke="none" target-height="74.95999" target-width="58.62001" target-x="220.01" target-y="44.49"></path><path d="M 282.87 34.45 L 322.82 4.42 L 347.54 76.77 L 282.87 34.45 Z" fill="#efbf82" fill-rule="nonzero" node-id="192" stroke="none" target-height="72.35" target-width="64.67001" target-x="282.87" target-y="4.42"></path><path d="M 1.52 130.58 L 7.57 130.32 L 14.20 129.86 L 24.68 128.87 L 36.36 127.47 L 51.32 125.24 L 67.25 122.38 L 85.94 118.42 L 98.63 115.36 L 112.29 111.71 L 126.99 107.41 L 141.54 102.75 L 156.84 97.36 L 172.94 91.21 L 188.82 84.60 L 205.25 77.15 L 222.24 68.82 L 234.73 62.25 L 247.40 55.14 L 260.27 47.47 L 273.35 39.23 L 286.06 30.73 L 298.85 21.61 L 311.74 11.86 L 324.72 1.46" fill="none" group-id="23" node-id="196" stroke="#ea9569" stroke-linecap="round" stroke-width="3" target-height="129.12" target-width="323.2" target-x="1.52" target-y="1.46"></path><path d="M 25.77 142.75 L 27.40 152.67 L 29.65 162.46 L 29.92 163.00 L 30.35 163.37 L 30.89 163.55 L 31.49 163.51 L 32.03 163.24 L 32.40 162.81 L 32.59 162.27 L 32.55 161.67 L 30.36 152.26 L 28.77 142.73 L 28.43 141.93 L 27.83 141.47 L 27.07 141.31 L 26.38 141.46 L 25.90 141.91 L 25.77 142.73 Z" fill="#fff6e5" fill-rule="nonzero" group-id="24" node-id="201" stroke="none" target-height="22.240005" target-width="6.8199997" target-x="25.77" target-y="141.31"></path><path d="M 29.52 154.83 L 41.67 151.56 L 42.19 151.28 L 42.54 150.85 L 42.72 150.31 L 42.67 149.73 L 42.41 149.20 L 41.99 148.83 L 41.46 148.64 L 40.87 148.67 L 28.72 151.94 L 27.99 152.37 L 27.69 153.01 L 27.72 153.74 L 28.07 154.40 L 28.66 154.81 L 29.52 154.83 Z" fill="#fff6e5" fill-rule="nonzero" group-id="25" node-id="206" stroke="none" target-height="6.1900024" target-width="15.030001" target-x="27.69" target-y="148.64"></path><path d="M 105.79 123.22 L 105.69 147.41 L 105.73 148.01 L 105.99 148.53 L 106.42 148.91 L 106.99 149.11 L 107.59 149.07 L 108.11 148.81 L 108.49 148.38 L 108.69 147.81 L 109.00 146.52 L 108.97 145.66 L 108.56 145.07 L 107.90 144.72 L 107.17 144.68 L 106.53 144.98 L 106.11 145.72 L 105.80 147.01 L 108.74 147.41 L 108.84 123.22 L 108.72 122.63 L 108.40 122.16 L 107.93 121.84 L 107.34 121.72 L 106.75 121.84 L 106.28 122.16 L 105.96 122.63 L 105.84 123.22 Z" fill="#fff6e5" fill-rule="nonzero" group-id="26" node-id="211" stroke="none" target-height="27.39" target-width="3.3099976" target-x="105.69" target-y="121.72"></path><path d="M 107.52 124.78 L 108.81 125.72 L 110.16 127.42 L 112.41 131.53 L 114.10 135.07 L 116.63 140.08 L 118.96 145.18 L 121.52 143.66 L 120.87 142.51 L 120.27 141.91 L 119.58 141.77 L 118.88 142.00 L 118.33 142.50 L 118.08 143.18 L 118.28 144.02 L 118.93 145.18 L 119.55 145.80 L 120.21 145.94 L 120.88 145.72 L 121.40 145.21 L 121.66 144.51 L 121.52 143.66 L 118.52 137.22 L 115.23 130.94 L 113.61 127.76 L 112.67 126.04 L 111.61 124.44 L 110.37 123.09 L 109.00 122.19 L 108.14 122.06 L 107.44 122.35 L 106.92 122.91 L 106.71 123.60 L 106.85 124.25 L 107.49 124.78 Z" fill="#fff6e5" fill-rule="nonzero" group-id="27" node-id="216" stroke="none" target-height="23.880005" target-width="14.950005" target-x="106.71" target-y="122.06"></path><path d="M 109.63 139.96 L 111.62 138.94 L 113.70 138.35 L 115.93 138.19 L 116.66 137.98 L 117.14 137.48 L 117.39 136.80 L 117.35 136.11 L 117.02 135.56 L 116.33 135.25 L 115.70 135.16 L 114.84 135.27 L 114.23 135.74 L 113.87 136.42 L 113.84 137.13 L 114.15 137.71 L 114.90 138.05 L 115.53 138.14 L 115.93 135.14 L 113.17 135.35 L 110.59 136.07 L 108.12 137.32 L 107.55 137.95 L 107.43 138.67 L 107.66 139.38 L 108.15 139.92 L 108.82 140.15 L 109.63 139.91 Z" fill="#fff6e5" fill-rule="nonzero" group-id="28" node-id="221" stroke="none" target-height="5.0099945" target-width="9.959999" target-x="107.43" target-y="135.14"></path><path d="M 38.11 139.72 L 39.17 146.53 L 40.61 153.25 L 42.43 159.89 L 42.90 160.61 L 43.56 160.91 L 44.31 160.88 L 44.95 160.54 L 45.34 159.95 L 45.33 159.10 L 43.56 152.72 L 42.15 146.26 L 41.11 139.72 L 40.78 138.92 L 40.17 138.45 L 39.42 138.29 L 38.73 138.45 L 38.24 138.90 L 38.11 139.72 Z" fill="#fff6e5" fill-rule="nonzero" group-id="29" node-id="226" stroke="none" target-height="22.62001" target-width="7.2299995" target-x="38.11" target-y="138.29"></path><path d="M 176.63 105.32 L 182.83 116.13 L 189.31 126.79 L 189.94 127.37 L 190.65 127.49 L 191.36 127.26 L 191.90 126.76 L 192.13 126.09 L 191.90 125.27 L 185.43 114.61 L 179.22 103.81 L 178.62 103.21 L 177.92 103.07 L 177.22 103.30 L 176.67 103.80 L 176.43 104.48 L 176.63 105.32 Z" fill="#fff6e5" fill-rule="nonzero" group-id="30" node-id="231" stroke="none" target-height="24.419998" target-width="15.700012" target-x="176.43" target-y="103.07"></path><path d="M 179.74 104.24 L 180.58 103.17 L 181.83 102.53 L 183.27 102.20 L 184.60 102.08 L 186.04 102.16 L 187.20 102.57 L 188.09 103.36 L 188.71 104.69 L 188.82 105.69 L 188.70 107.07 L 188.35 108.48 L 187.80 109.90 L 187.05 111.17 L 186.19 112.11 L 185.16 112.64 L 184.02 112.61 L 183.17 112.61 L 182.57 113.00 L 182.23 113.65 L 182.19 114.39 L 182.49 115.05 L 183.22 115.51 L 184.76 115.72 L 186.13 115.54 L 187.38 114.97 L 189.01 113.58 L 190.33 111.64 L 191.25 109.41 L 191.73 107.08 L 191.73 104.77 L 191.22 102.84 L 190.43 101.54 L 189.44 100.52 L 188.24 99.77 L 186.18 99.10 L 183.95 98.97 L 181.73 99.37 L 179.70 100.26 L 178.52 101.12 L 177.57 102.17 L 176.85 103.44 L 176.76 104.26 L 177.10 104.83 L 177.73 105.16 L 178.50 105.21 L 179.21 104.92 L 179.74 104.24 Z" fill="#fff6e5" fill-rule="nonzero" group-id="31" node-id="236" stroke="none" target-height="16.75" target-width="14.970001" target-x="176.76" target-y="98.97"></path><path d="M 246.86 72.99 L 253.90 83.27 L 261.20 93.38 L 261.88 93.91 L 262.63 94.01 L 263.36 93.76 L 263.88 93.27 L 264.08 92.64 L 263.79 91.87 L 256.50 81.77 L 249.45 71.47 L 248.79 70.91 L 248.06 70.80 L 247.34 71.03 L 246.81 71.53 L 246.60 72.18 L 246.86 72.99 Z" fill="#fff6e5" fill-rule="nonzero" group-id="32" node-id="241" stroke="none" target-height="23.21" target-width="17.47998" target-x="246.6" target-y="70.8"></path><path d="M 249.92 71.88 L 250.48 70.89 L 251.30 70.12 L 252.45 69.54 L 254.35 69.15 L 256.25 69.31 L 257.42 69.74 L 258.29 70.43 L 258.92 71.39 L 259.12 72.32 L 259.12 73.70 L 258.92 75.16 L 258.52 76.66 L 257.91 78.04 L 257.14 79.08 L 256.17 79.73 L 255.02 79.80 L 254.16 79.86 L 253.56 80.29 L 253.21 80.96 L 253.17 81.68 L 253.48 82.30 L 254.23 82.70 L 255.78 82.80 L 257.14 82.51 L 258.35 81.86 L 259.89 80.39 L 261.09 78.39 L 261.86 76.13 L 262.18 73.78 L 262.03 71.48 L 261.38 69.56 L 260.51 68.32 L 259.46 67.38 L 258.20 66.70 L 256.10 66.15 L 253.85 66.16 L 251.65 66.69 L 249.68 67.70 L 248.56 68.64 L 247.69 69.76 L 247.06 71.08 L 247.03 71.93 L 247.41 72.51 L 248.05 72.86 L 248.80 72.89 L 249.48 72.60 L 249.96 71.88 Z" fill="#fff6e5" fill-rule="nonzero" group-id="33" node-id="246" stroke="none" target-height="16.650002" target-width="15.149994" target-x="247.03" target-y="66.15"></path><path d="M 303.69 33.92 L 308.49 36.13 L 313.40 38.08 L 315.50 38.82 L 316.56 39.00 L 317.47 38.88 L 318.22 38.38 L 318.83 37.23 L 318.99 36.13 L 318.89 34.92 L 318.46 32.61 L 317.14 23.43 L 316.80 22.68 L 316.21 22.37 L 315.50 22.41 L 314.82 22.76 L 314.36 23.37 L 314.25 24.23 L 315.19 29.64 L 315.61 32.40 L 315.83 35.08 L 315.93 35.59 L 316.12 35.86 L 312.76 34.65 L 308.95 33.07 L 305.20 31.33 L 304.35 31.17 L 303.65 31.43 L 303.14 31.99 L 302.92 32.68 L 303.07 33.35 L 303.69 33.92 Z" fill="#fff6e5" fill-rule="nonzero" group-id="34" node-id="251" stroke="none" target-height="16.63" target-width="16.069977" target-x="302.92" target-y="22.37"></path><path d="M 316.40 38.70 L 323.66 47.70 L 324.34 48.18 L 325.01 48.15 L 325.62 47.77 L 326.03 47.13 L 326.13 46.38 L 325.78 45.58 L 318.52 36.58 L 317.84 36.11 L 317.17 36.13 L 316.56 36.51 L 316.15 37.15 L 316.05 37.90 L 316.40 38.70 Z" fill="#fff6e5" fill-rule="nonzero" group-id="35" node-id="256" stroke="none" target-height="12.07" target-width="10.080017" target-x="316.05" target-y="36.11"></path></svg>