<?xml version="1.0" standalone="no"?><!DOCTYPE svg PUBLIC "-//W3C//DTD SVG 1.1//EN" "http://www.w3.org/Graphics/SVG/1.1/DTD/svg11.dtd"><svg height="434" node-id="1" sillyvg="true" template-height="434" template-width="460" version="1.1" viewBox="0 0 460 434" width="460" xmlns="http://www.w3.org/2000/svg" xmlns:xlink="http://www.w3.org/1999/xlink"><defs node-id="20"></defs><g node-id="78"><path d="M 91.32 86.14 L 90.85 85.67 L 88.00 84.47 L 84.37 83.37 L 78.91 82.08 L 72.90 81.01 L 65.63 80.14 L 58.03 79.71 L 49.75 79.82 L 43.63 80.33 L 37.57 81.21 L 31.58 82.44 L 25.67 84.02 L 19.86 85.95 L 14.16 88.23 L 12.68 90.94 L 11.73 93.84 L 11.31 96.86 L 11.45 99.94 L 12.24 102.87 L 13.49 105.50 L 15.21 107.87 L 17.32 109.91 L 19.74 111.52 L 22.53 112.72 L 27.94 107.70 L 33.69 103.17 L 39.79 99.14 L 46.26 95.58 L 52.02 93.01 L 57.91 90.86 L 63.93 89.11 L 70.06 87.78 L 76.26 86.87 L 82.55 86.38 L 88.99 86.39 L 90.97 86.33 L 91.32 86.14 Z" fill="#ff9e8b" fill-rule="nonzero" group-id="1" node-id="24" stroke="none" target-height="33.010002" target-width="80.01" target-x="11.31" target-y="79.71"></path></g><g node-id="79"><path d="M 87.20 82.32 L 83.68 73.10 L 80.48 63.77 L 77.62 54.32 L 76.77 51.01 L 74.95 42.48 L 74.04 37.03 L 73.25 30.79 L 72.79 24.40 L 72.78 18.01 L 73.08 13.76 L 73.70 9.84 L 74.62 6.21 L 75.37 4.20 L 76.52 2.49 L 78.09 1.03 L 79.55 0.37 L 81.08 0.06 L 82.72 0.08 L 85.18 0.58 L 87.59 1.47 L 89.86 2.61 L 91.67 3.71 L 93.91 5.29 L 91.14 24.82 L 89.42 39.87 L 88.34 53.57 L 88.00 63.55 L 88.24 72.43 L 88.90 78.37 L 89.67 82.01 L 90.50 84.60 L 91.35 86.37 L 92.03 87.56 L 93.17 89.58 L 94.19 91.51 L 94.52 92.45 L 94.27 92.27 L 93.19 90.92 L 90.40 87.01 L 87.20 82.32 Z" fill="#78a3c6" fill-rule="nonzero" group-id="2" node-id="29" stroke="none" target-height="92.39" target-width="21.739998" target-x="72.78" target-y="0.06"></path></g><g node-id="80"><path d="M 97.18 91.81 L 90.89 83.96 L 84.85 76.96 L 79.07 70.77 L 73.52 65.32 L 65.65 58.26 L 58.36 52.40 L 51.62 47.59 L 44.58 43.15 L 38.27 39.62 L 32.61 36.88 L 26.77 34.45 L 21.81 32.65 L 17.62 31.42 L 11.62 30.02 L 7.80 29.43 L 4.27 29.16 L 4.27 29.16 L 3.02 30.26 L 2.01 31.59 L 1.22 33.20 L 0.46 35.84 L 0.07 38.83 L 0.01 41.92 L 0.20 45.01 L 1.02 50.67 L 1.43 52.05 L 2.11 53.21 L 3.05 54.19 L 4.20 54.93 L 5.47 55.36 L 6.90 55.50 L 10.72 55.55 L 15.08 56.02 L 20.08 56.98 L 27.58 58.96 L 35.79 61.66 L 44.04 64.77 L 52.34 68.21 L 60.50 71.83 L 68.06 75.34 L 81.26 81.72 L 90.27 86.04 L 92.51 87.30" fill="#83a38b" fill-rule="nonzero" group-id="3" node-id="34" stroke="none" target-height="62.649998" target-width="97.17" target-x="0.01" target-y="29.16"></path></g><g node-id="81"><path d="M 86.43 86.03 L 255.17 403.21 L 265.50 398.81 L 275.58 394.00 L 285.43 388.78 L 295.04 383.16 L 304.42 377.13 L 313.51 370.73 L 322.33 363.96 L 330.87 356.81 L 339.11 349.30 L 347.02 341.46 L 354.62 333.27 L 361.90 324.72 L 369.56 314.91 L 376.43 305.30 L 382.55 295.87 L 388.30 286.19 L 393.37 276.87 L 397.80 267.92 L 401.92 258.79 L 405.47 250.22 L 408.49 242.18 L 412.48 230.25 L 415.46 219.98 L 417.90 210.26 L 419.56 202.62 L 90.56 80.93 L 89.09 80.72 L 87.83 81.11 L 86.81 81.97 L 86.16 83.17 L 85.99 84.54 L 86.43 86.03 Z" fill="#ffd286" fill-rule="nonzero" group-id="4" node-id="39" stroke="none" target-height="322.49" target-width="333.57" target-x="85.99" target-y="80.72"></path></g><g node-id="82"><path d="M 104.70 120.38 L 147.09 101.79 L 89.41 80.46 L 88.49 80.29 L 87.60 80.40 L 86.77 80.78 L 86.08 81.40 L 85.61 82.21 L 85.42 83.09 L 85.49 83.99 L 85.85 84.85 Z" fill="#feb978" fill-rule="nonzero" group-id="5" node-id="44" stroke="none" target-height="40.089996" target-width="61.67" target-x="85.42" target-y="80.29"></path></g><path d="M 133.15 173.85 L 224.44 130.43 L 302.53 159.31 L 165.04 233.80 L 133.15 173.85 Z" fill="#feb978" fill-rule="nonzero" node-id="47" stroke="none" target-height="103.37001" target-width="169.38" target-x="133.15" target-y="130.43"></path><path d="M 197.30 294.45 L 220.23 281.93 L 243.80 268.63 L 268.04 254.54 L 292.96 239.63 L 321.93 221.64 L 349.49 203.89 L 375.70 186.37 L 393.45 192.32 L 411.56 198.23 L 420.48 201.35 L 429.01 204.61 L 426.70 210.19 L 423.99 216.18 L 418.31 228.24 L 415.60 234.24 L 413.29 239.84 L 392.56 253.64 L 370.93 267.62 L 348.37 281.77 L 324.86 296.10 L 299.39 311.08 L 274.65 325.17 L 250.62 338.40 L 227.28 350.80 L 197.30 294.45 Z" fill="#feb978" fill-rule="nonzero" group-id="6" node-id="51" stroke="none" target-height="164.43" target-width="231.71" target-x="197.3" target-y="186.37"></path><path d="M 281.09 423.14 L 282.45 428.07 L 279.55 426.22 L 280.23 428.68 L 277.84 426.68 L 277.51 429.42 L 274.46 426.01 L 273.62 431.55 L 272.47 427.35 L 270.38 432.44 L 269.23 428.24 L 266.44 433.52 L 265.22 429.08 L 262.04 432.18 L 263.66 426.32 L 258.85 431.62 L 258.90 427.62 L 256.45 430.94 L 257.18 428.09 L 254.18 428.91 L 255.10 426.01 L 250.78 429.58 L 253.18 425.25 L 248.76 426.47 L 249.60 424.34 L 245.16 425.55 L 247.26 423.55 L 242.57 424.84 L 245.12 421.57 L 239.45 423.12 L 242.04 419.01 L 236.44 420.55 L 239.79 416.72 L 234.61 418.14 L 236.67 415.49 L 233.59 414.49 L 239.67 411.49 L 234.32 412.96 L 238.14 409.79 L 233.77 409.99 L 237.22 407.39 L 231.70 407.58 L 235.10 405.49 L 229.47 405.27 L 233.01 401.73 L 228.51 401.73 L 234.32 398.73 L 229.75 396.23 L 232.62 395.44 L 229.18 394.17 L 234.77 392.64 L 230.96 391.30 L 234.17 390.42 L 231.22 386.42 L 235.35 387.94 L 233.52 385.56 L 235.85 384.92 L 235.32 381.65 L 239.02 382.95 L 235.83 376.14 L 240.42 378.86 L 239.42 375.16 L 242.59 375.61 L 240.81 371.06 L 244.36 374.33 L 244.03 366.99 L 245.59 372.67 L 247.89 365.93 L 247.89 366.99 L 247.90 369.27 L 247.92 371.40 L 247.97 372.01 L 248.58 370.31 L 249.86 367.35 L 251.11 364.55 L 251.68 363.30 L 251.29 368.72 L 254.66 362.49 L 255.95 367.18 L 258.95 362.90 L 258.95 366.62 L 264.31 361.97 L 262.31 367.29 L 267.95 358.85 L 268.54 365.85 L 271.04 361.40 L 270.65 365.80 L 276.23 362.94 L 272.85 367.05 L 278.08 364.82 L 276.76 369.72 L 281.44 365.52 L 280.28 369.02 L 284.95 367.74 L 281.41 372.16 L 286.47 371.04 L 284.42 373.46 L 289.28 371.86 L 283.77 374.96 L 292.12 374.53 L 287.53 377.11 L 292.73 376.75 L 291.73 379.24 L 295.32 378.24 L 292.68 381.12 L 299.17 379.57 L 296.04 382.88 L 300.71 383.31 L 294.57 387.36 L 298.71 386.77 L 296.02 389.89 L 299.08 390.51 L 296.08 391.35 L 302.01 393.11 L 295.56 394.11 L 300.43 395.99 L 297.03 397.59 L 300.90 400.13 L 294.08 400.39 L 298.08 402.75 L 294.37 403.65 L 298.21 407.44 L 294.07 406.37 L 296.62 410.05 L 293.52 408.33 L 295.52 413.71 L 292.99 412.24 L 294.57 416.05 L 290.83 414.99 L 292.83 418.38 L 288.62 415.60 L 290.21 420.43 L 288.08 419.43 L 287.91 422.66 L 284.09 421.52 L 285.21 424.66 Z" fill="#ff9e8b" fill-rule="nonzero" group-id="7" node-id="56" stroke="none" target-height="74.66998" target-width="73.500015" target-x="228.51" target-y="358.85"></path><path d="M 351.46 375.17 L 356.12 377.29 L 352.84 378.29 L 355.16 379.36 L 352.10 379.91 L 354.00 381.91 L 349.42 382.07 L 353.14 386.26 L 349.14 384.45 L 351.70 389.31 L 347.75 387.51 L 350.00 393.04 L 345.81 391.13 L 346.16 395.55 L 342.70 390.55 L 343.70 397.65 L 340.70 395.04 L 341.70 399.04 L 339.98 396.64 L 338.69 399.48 L 337.05 396.92 L 337.05 402.53 L 335.26 397.91 L 333.36 402.08 L 332.27 400.08 L 330.36 404.27 L 330.14 401.36 L 328.14 405.78 L 327.26 401.72 L 324.82 407.08 L 323.32 402.46 L 320.91 407.73 L 320.12 402.73 L 317.89 407.61 L 317.18 404.33 L 314.40 406.02 L 316.00 399.44 L 313.70 404.44 L 313.70 399.44 L 311.05 402.93 L 311.27 398.61 L 307.88 402.97 L 308.45 398.97 L 304.68 403.16 L 304.23 398.16 L 301.37 401.64 L 302.79 395.26 L 297.94 397.17 L 299.18 394.46 L 296.00 396.29 L 298.41 391.01 L 294.94 393.08 L 296.32 390.08 L 291.38 389.79 L 295.09 387.72 L 292.09 387.60 L 293.09 385.40 L 290.28 383.72 L 293.66 381.72 L 286.38 379.81 L 291.38 378.02 L 287.89 376.43 L 290.27 374.29 L 285.67 372.72 L 290.45 372.09 L 284.61 367.63 L 289.96 370.07 L 286.27 363.99 L 287.09 364.67 L 288.85 366.12 L 290.50 367.46 L 290.99 367.83 L 290.07 366.28 L 288.61 363.41 L 287.27 360.64 L 286.68 359.40 L 290.59 363.15 L 287.97 356.58 L 292.39 358.58 L 291.09 353.52 L 293.92 355.94 L 293.78 348.84 L 296.59 353.78 L 293.72 344.04 L 299.48 348.04 L 297.66 343.27 L 300.79 346.39 L 302.17 340.27 L 303.17 345.50 L 304.81 340.06 L 307.71 344.20 L 307.48 337.91 L 309.42 341.04 L 311.42 336.64 L 312.55 342.19 L 314.93 337.59 L 315.47 340.71 L 317.36 335.95 L 316.21 342.17 L 321.21 335.48 L 320.21 340.67 L 323.26 336.44 L 324.52 338.83 L 326.06 335.45 L 326.59 339.32 L 329.59 333.32 L 330.13 337.84 L 333.45 334.53 L 332.63 341.85 L 334.82 338.28 L 335.50 342.35 L 337.94 340.40 L 336.67 343.23 L 341.82 339.81 L 338.43 345.38 L 343.00 342.85 L 342.00 346.49 L 346.44 345.15 L 342.26 350.55 L 346.62 349.02 L 344.92 352.45 L 350.30 351.93 L 346.82 354.42 L 351.28 354.82 L 347.97 356.10 L 353.38 358.01 L 350.64 359.01 L 354.57 360.24 L 351.37 362.43 L 355.25 363.08 L 350.41 364.53 L 355.14 366.40 L 353.00 367.40 L 355.37 369.61 L 352.12 371.78 L 355.26 372.93 Z" fill="#a4bdc1" fill-rule="nonzero" group-id="8" node-id="61" stroke="none" target-height="74.41" target-width="71.51001" target-x="284.61" target-y="333.32"></path><path d="M 348.25 352.28 L 344.47 355.72 L 344.81 352.29 L 342.92 354.01 L 343.62 351.01 L 341.02 351.96 L 342.68 347.69 L 337.36 349.46 L 340.58 346.53 L 335.10 346.97 L 338.32 344.05 L 332.32 343.95 L 335.73 340.85 L 331.52 339.42 L 337.52 338.21 L 330.61 336.32 L 334.20 334.56 L 330.12 333.88 L 333.00 333.24 L 330.90 330.93 L 333.90 330.44 L 328.75 328.20 L 333.70 328.38 L 330.61 324.98 L 332.90 324.78 L 329.80 321.37 L 332.56 322.32 L 329.29 318.72 L 333.36 319.51 L 329.36 315.16 L 334.20 315.60 L 330.30 311.31 L 335.25 312.58 L 331.63 308.58 L 334.93 309.22 L 334.47 306.00 L 339.89 310.06 L 336.16 305.96 L 340.72 307.96 L 338.56 304.14 L 342.44 306.05 L 339.77 301.21 L 343.18 303.30 L 340.82 298.18 L 345.58 299.73 L 343.51 295.73 L 348.82 299.54 L 348.97 294.34 L 350.97 296.54 L 350.55 292.90 L 354.45 297.19 L 353.91 293.19 L 356.15 295.65 L 358.35 291.23 L 358.87 295.60 L 360.16 292.89 L 361.79 294.67 L 364.46 292.67 L 364.98 296.56 L 369.61 290.62 L 369.27 295.96 L 372.11 293.37 L 373.11 296.37 L 376.36 292.72 L 375.09 297.41 L 381.49 293.80 L 377.13 297.80 L 384.18 296.80 L 383.23 297.29 L 381.21 298.33 L 379.32 299.32 L 378.79 299.62 L 380.58 299.38 L 383.79 299.18 L 386.87 299.03 L 388.24 298.98 L 383.24 301.10 L 390.32 301.28 L 386.72 304.55 L 391.91 305.31 L 388.57 306.97 L 395.15 309.63 L 389.50 310.27 L 399.59 311.47 L 393.59 315.17 L 398.68 315.38 L 394.58 317.03 L 399.66 320.71 L 394.46 319.56 L 398.82 323.21 L 393.88 324.21 L 399.75 326.48 L 396.10 327.03 L 399.36 330.62 L 393.81 329.46 L 397.10 333.46 L 394.09 332.72 L 397.72 336.33 L 392.45 332.82 L 396.62 340.08 L 392.24 337.15 L 394.92 341.62 L 392.23 341.84 L 394.73 344.58 L 390.97 343.58 L 395.30 348.66 L 390.93 347.37 L 392.66 351.73 L 386.26 348.09 L 388.67 351.52 L 384.67 350.52 L 385.51 353.52 L 383.41 351.24 L 384.52 357.32 L 380.73 352.02 L 381.26 357.21 L 378.26 354.90 L 377.75 359.50 L 374.43 353.50 L 374.12 358.10 L 371.64 355.20 L 369.99 360.34 L 369.07 356.16 L 366.95 360.16 L 367.07 356.61 L 363.19 360.83 L 363.36 357.91 L 360.67 361.04 L 359.92 357.23 L 357.80 360.55 L 358.37 355.55 L 354.79 359.16 L 354.72 356.80 L 351.72 358.11 L 351.09 354.22 L 348.80 356.65 Z" fill="#c1ce86" fill-rule="nonzero" group-id="9" node-id="66" stroke="none" target-height="70.42001" target-width="71" target-x="328.75" target-y="290.62"></path><path d="M 380.16 255.60 L 377.52 251.22 L 380.81 252.22 L 379.49 250.03 L 382.32 251.31 L 381.90 248.58 L 385.76 251.03 L 385.07 245.48 L 387.31 249.20 L 387.94 243.75 L 390.19 247.47 L 391.45 241.63 L 393.83 245.58 L 396.09 241.72 L 396.09 247.80 L 399.29 241.39 L 400.29 245.25 L 401.75 241.39 L 401.81 244.33 L 404.49 242.72 L 404.39 245.77 L 407.58 241.16 L 406.45 245.98 L 410.38 243.61 L 410.14 245.89 L 414.09 243.52 L 412.62 246.05 L 416.79 243.54 L 415.22 247.38 L 420.22 244.38 L 418.84 249.04 L 423.84 246.04 L 421.64 250.65 L 426.24 247.88 L 424.97 250.99 L 428.22 251.16 L 423.22 255.69 L 427.97 252.83 L 425.09 256.89 L 429.24 255.51 L 426.62 258.95 L 431.89 257.27 L 429.18 260.21 L 434.65 258.89 L 432.21 263.25 L 436.53 262.00 L 431.75 266.46 L 436.83 267.62 L 434.27 269.16 L 437.93 269.45 L 432.93 272.45 L 436.93 272.70 L 434.08 274.42 L 437.99 277.42 L 433.61 277.08 L 436.01 278.87 L 434.09 280.14 L 435.49 283.14 L 431.57 282.89 L 436.50 288.59 L 431.33 287.22 L 433.33 290.50 L 430.16 290.92 L 433.10 294.82 L 428.80 292.64 L 431.10 299.64 L 428.10 294.64 L 427.71 301.74 L 427.42 300.72 L 426.78 298.53 L 426.18 296.49 L 425.98 295.91 L 425.86 297.71 L 425.44 300.90 L 424.98 303.94 L 424.77 305.30 L 423.67 300.00 L 422.11 306.90 L 419.61 302.74 L 417.84 307.68 L 416.84 304.09 L 412.95 310.02 L 413.42 304.36 L 410.28 314.01 L 407.81 307.44 L 406.62 312.44 L 405.79 308.11 L 401.20 312.37 L 403.34 307.50 L 398.91 311.06 L 398.86 306.01 L 395.49 311.33 L 395.66 307.64 L 391.51 310.14 L 393.72 304.92 L 389.09 307.25 L 390.41 304.37 L 386.16 307.23 L 390.62 302.75 L 382.70 305.42 L 386.42 301.69 L 381.51 303.46 L 381.83 300.77 L 378.65 302.72 L 380.41 299.23 L 374.58 302.49 L 376.70 298.49 L 372.09 299.33 L 376.90 293.77 L 373.07 295.47 L 374.82 291.73 L 371.71 291.96 L 374.35 290.34 L 368.17 290.25 L 374.11 287.57 L 368.91 287.07 L 371.76 284.61 L 367.34 283.22 L 373.84 281.12 L 369.38 279.92 L 372.72 278.05 L 367.99 275.44 L 372.27 275.35 L 368.81 272.50 L 372.27 273.31 L 368.88 268.68 L 371.71 269.41 L 369.16 266.17 L 373.09 266.17 L 370.25 263.45 L 375.06 264.98 L 372.18 260.72 L 374.51 261.11 L 373.80 257.95 L 377.70 257.95 L 375.77 255.23 Z" fill="#ff9e8b" fill-rule="nonzero" group-id="10" node-id="71" stroke="none" target-height="72.850006" target-width="70.649994" target-x="367.34" target-y="241.16"></path><path d="M 393.93 223.72 L 388.83 223.35 L 391.54 221.24 L 388.99 221.05 L 391.67 219.47 L 389.19 218.25 L 393.42 216.50 L 388.48 213.87 L 392.82 214.18 L 388.73 210.52 L 393.06 210.83 L 389.06 206.44 L 393.65 206.77 L 391.78 202.77 L 396.78 206.25 L 393.39 199.94 L 397.14 201.33 L 394.82 197.90 L 397.26 199.55 L 397.49 196.44 L 399.92 198.27 L 397.99 193.00 L 401.28 196.71 L 401.61 192.13 L 403.33 193.65 L 403.66 189.05 L 404.88 191.71 L 405.23 186.86 L 407.46 190.35 L 407.89 184.48 L 410.89 188.29 L 411.31 182.51 L 413.81 186.96 L 414.19 181.61 L 416.01 184.44 L 418.01 181.88 L 418.81 188.61 L 419.21 183.08 L 420.89 187.72 L 422.17 183.53 L 423.46 187.65 L 425.13 182.39 L 425.97 186.30 L 428.04 181.06 L 430.20 185.58 L 431.67 181.32 L 432.56 187.80 L 436.44 184.31 L 436.22 187.31 L 438.57 184.49 L 438.15 190.27 L 440.68 187.12 L 440.44 190.44 L 445.17 188.98 L 442.36 192.37 L 445.21 191.44 L 445.09 193.82 L 448.35 194.41 L 445.89 197.47 L 453.38 196.72 L 449.28 200.15 L 453.11 200.43 L 451.62 203.27 L 456.51 203.11 L 452.24 205.36 L 459.24 207.50 L 453.37 207.08 L 458.95 211.49 L 457.95 211.14 L 455.79 210.40 L 453.78 209.71 L 453.19 209.54 L 454.60 210.67 L 456.97 212.86 L 459.20 214.98 L 460.19 215.94 L 455.19 213.78 L 459.94 219.03 L 455.09 218.72 L 458.09 223.00 L 454.59 221.72 L 457.20 228.32 L 452.84 224.68 L 458.92 232.81 L 452.13 231.04 L 455.49 234.87 L 451.49 233.04 L 452.32 239.26 L 449.56 234.72 L 449.92 240.39 L 445.77 237.52 L 448.17 243.34 L 445.26 241.07 L 444.91 245.91 L 441.91 241.09 L 441.29 246.23 L 439.69 243.49 L 439.57 248.62 L 438.49 242.38 L 436.11 250.38 L 435.20 245.19 L 433.82 250.19 L 431.82 248.39 L 431.56 252.09 L 429.72 248.65 L 429.02 255.28 L 426.94 251.23 L 424.94 255.49 L 423.16 248.35 L 422.35 252.45 L 420.29 248.87 L 418.69 251.55 L 418.90 248.45 L 415.26 253.45 L 416.49 247.04 L 413.09 251.04 L 412.72 247.29 L 409.09 250.08 L 411.09 243.56 L 407.55 246.56 L 407.94 242.76 L 403.09 245.06 L 405.48 241.52 L 401.15 242.72 L 403.80 240.36 L 398.07 240.46 L 400.30 238.57 L 396.18 238.79 L 398.42 235.61 L 394.56 236.36 L 398.56 233.36 L 393.48 233.25 L 395.14 231.57 L 392.14 230.33 L 394.43 227.16 L 391.09 227.16 Z" fill="#a4bdc1" fill-rule="nonzero" group-id="11" node-id="76" stroke="none" target-height="74.43001" target-width="71.70999" target-x="388.48" target-y="181.06"></path></svg>